<svg width="159" height="132" viewBox="0 0 159 132" fill="none" xmlns="http://www.w3.org/2000/svg">
<path d="M43.4979 58.4547C55.7837 36.93 55.5182 13.2585 54.2551 0.362525C35.2326 14.4814 14.767 26.031 4.71701 57.2406C-3.09437 81.4984 2.07653 104.763 4.99255 113.399C10.3724 105.089 31.4989 79.4767 43.4979 58.4547Z" fill="#11530E"/>
<path d="M5.00642 113.387L54.2725 0.349762C58.902 10.8387 63.3223 39.1833 46.4121 66.1581C29.5019 93.1329 11.9565 108.924 5.00642 113.387Z" fill="#034401"/>
<path d="M76.8167 124.557C101.597 124.136 121.818 111.827 132.264 104.159C110.414 95.0063 90.0365 83.3014 58.0684 90.5871C33.2211 96.25 15.8533 112.57 9.91512 119.485C19.8069 119.871 52.6148 124.967 76.8167 124.557Z" fill="#11530E"/>
<path d="M9.93238 119.492L132.284 104.168C125.626 113.502 103.507 131.77 71.6795 130.995C39.852 130.22 17.3173 123.191 9.93238 119.492Z" fill="#034401"/>
<path d="M118.396 48.9551C140.319 37.394 152.806 17.2821 158.665 5.72482C135.036 7.42097 111.57 6.17482 86.3327 27.1067C66.7173 43.3761 58.5868 65.7791 56.4097 74.63C65.4102 70.5086 96.9858 60.2462 118.396 48.9551Z" fill="#11530E"/>
<path d="M56.4283 74.6277L158.687 5.72355C156.96 17.058 145.469 43.343 116.719 57.0187C87.9687 70.6945 64.6878 74.5948 56.4283 74.6277Z" fill="#034401"/>
</svg>
