<svg width="169" height="137" viewBox="0 0 169 137" fill="none" xmlns="http://www.w3.org/2000/svg">
<path d="M98.4865 99.9947C73.746 98.5244 52.6454 109.256 41.6459 116.106C62.7346 126.898 82.16 140.122 114.591 135.295C139.797 131.543 158.359 116.594 164.807 110.152C154.973 109.013 122.649 101.431 98.4865 99.9947Z" fill="#11530E"/>
<path d="M164.79 110.144L41.6267 116.096C48.9763 107.296 72.4238 90.7682 104.1 93.9674C135.776 97.1667 157.709 105.893 164.79 110.144Z" fill="#034401"/>
<path d="M142.967 40.8247C131.605 18.7984 111.607 6.13011 100.103 0.166578C101.585 23.8098 100.127 47.2642 120.83 72.6893C136.921 92.4511 159.249 100.784 168.08 103.041C164.04 94.0036 154.064 62.3365 142.967 40.8247Z" fill="#11530E"/>
<path d="M168.078 103.023L100.102 0.144897C111.42 1.97419 137.6 13.7027 151.015 42.5754C164.43 71.4481 168.12 94.7633 168.078 103.023Z" fill="#034401"/>
<path d="M56.7676 37.0697C36.686 22.5444 13.1227 20.2675 0.16572 20.1391C12.1612 40.5672 21.4473 62.1543 51.3979 75.4962C74.677 85.8662 98.3626 83.2224 107.261 81.2502C99.5771 75.0095 76.3803 51.2558 56.7676 37.0697Z" fill="#11530E"/>
<path d="M107.251 81.2346L0.154785 20.1199C11.0801 16.643 39.7353 15.2907 64.7392 34.9986C89.7431 54.7065 103.56 73.8456 107.251 81.2346Z" fill="#034401"/>
</svg>
