<svg width="91" height="41" viewBox="0 0 91 41" fill="none" xmlns="http://www.w3.org/2000/svg">
<mask id="path-1-inside-1_596_943" fill="white">
<path d="M16.854 15.2917C15.1915 12.903 12.6681 11.7369 11.2369 11.2202C11.7743 13.9496 11.9665 16.7023 14.7687 19.3425C16.9468 21.3946 19.6746 22.0201 20.7374 22.1466C20.1276 21.1569 18.4777 17.6246 16.854 15.2917Z"/>
<path d="M20.7367 22.1442L11.2364 11.2175C12.5821 11.2558 15.8106 12.2171 17.8178 15.3711C19.8249 18.525 20.6141 21.1821 20.7367 22.1442Z"/>
<path d="M25.5434 15.0935C26.7491 12.4447 26.464 9.67953 26.178 8.18512C24.1051 10.0402 21.8359 11.6104 20.9956 15.3676C20.3425 18.288 21.1968 20.953 21.6305 21.9315C22.1704 20.9021 24.3659 17.6804 25.5434 15.0935Z"/>
<path d="M21.6321 21.9296L26.18 8.18308C26.8339 9.35992 27.6549 12.6269 25.967 15.9626C24.2791 19.2983 22.3969 21.3332 21.6321 21.9296Z"/>
<path d="M19.6253 6.87023C19.5054 3.96242 18.0028 1.62371 17.073 0.419355C16.0607 3.0104 14.7447 5.43579 15.6909 9.1678C16.4264 12.0685 18.3917 14.0609 19.2204 14.7383C19.2375 13.576 19.7423 9.71013 19.6253 6.87023Z"/>
<path d="M19.2208 14.7361L17.0737 0.41687C18.1884 1.17181 20.3958 3.71638 20.3954 7.45483C20.395 11.1933 19.6341 13.8586 19.2208 14.7361Z"/>
<path d="M25.027 32.8259C23.8466 30.1658 21.5894 28.5432 20.282 27.765C20.2931 30.5467 19.9608 33.2861 22.2128 36.4089C23.9631 38.8361 26.5232 39.9665 27.5429 40.2918C27.1315 39.2047 26.1798 35.4239 25.027 32.8259Z"/>
<path d="M27.5426 40.2893L20.2819 27.7621C21.596 28.0544 24.5843 29.6093 25.9582 33.0861C27.3322 36.563 27.6043 39.3214 27.5426 40.2893Z"/>
<path d="M33.5972 34.2756C35.2824 31.9029 35.5258 29.1337 35.5277 27.6122C33.1412 29.0415 30.6159 30.1538 29.0797 33.6842C27.8857 36.4281 28.2202 39.2066 28.4609 40.2495C29.1858 39.3409 31.9514 36.593 33.5972 34.2756Z"/>
<path d="M28.4631 40.2481L35.5304 27.6107C35.9497 28.89 36.1376 32.2533 33.849 35.2093C31.5603 38.1653 29.327 39.8072 28.4631 40.2481Z"/>
<path d="M29.3418 25.0809C29.7744 22.203 28.7416 19.6222 28.0564 18.2636C26.5721 20.6162 24.8209 22.7487 25.0438 26.5924C25.217 29.5799 26.7697 31.9082 27.4552 32.7301C27.6919 31.5921 28.9193 27.8916 29.3418 25.0809Z"/>
<path d="M27.4565 32.7282L28.058 18.2614C29.0097 19.2137 30.6957 22.13 29.9878 25.8008C29.2799 29.4717 28.0283 31.9448 27.4565 32.7282Z"/>
<path d="M43.0093 28.1813C45.2845 26.3665 46.2835 23.7725 46.7058 22.3107C44.0173 23.0249 41.2829 23.3962 38.8311 26.3646C36.9254 28.6719 36.4792 31.4346 36.4223 32.5034C37.3701 31.8305 40.7873 29.9537 43.0093 28.1813Z"/>
<path d="M36.4248 32.5026L46.7087 22.3099C46.7583 23.6553 46.0096 26.9396 42.9932 29.1481C39.9769 31.3567 37.3769 32.3176 36.4248 32.5026Z"/>
<path d="M43.7741 36.8398C46.4959 37.8701 49.2366 37.4053 50.7092 37.0224C48.7228 35.0749 47.008 32.913 43.2039 32.3195C40.2472 31.8582 37.6436 32.8845 36.6955 33.3811C37.7579 33.8527 41.1159 35.8335 43.7741 36.8398Z"/>
<path d="M36.697 33.3826L50.7108 37.0243C49.5792 37.7535 46.3727 38.7859 42.934 37.3191C39.4953 35.8523 37.342 34.1068 36.697 33.3826Z"/>
<path d="M51.5934 30.3974C54.4872 30.0882 56.723 28.4363 57.8641 27.4298C55.2126 26.5887 52.7065 25.4337 49.0442 26.6213C46.1976 27.5444 44.3376 29.6355 43.7157 30.5065C44.8767 30.4478 48.7672 30.6994 51.5934 30.3974Z"/>
<path d="M43.7178 30.5072L57.8665 27.4308C57.1859 28.5923 54.7907 30.961 51.0602 31.2044C47.3296 31.4478 44.6203 30.8623 43.7178 30.5072Z"/>
<path d="M38.4392 12.1585C39.6112 9.49457 39.291 6.73327 38.986 5.24261C36.9369 7.12387 34.6878 8.72269 33.8953 12.4903C33.2793 15.4188 34.1673 18.0727 34.6134 19.0456C35.1402 18.0094 37.2947 14.7601 38.4392 12.1585Z"/>
<path d="M34.6151 19.0437L38.9881 5.2405C39.6569 6.40894 40.5193 9.66525 38.8739 13.0221C37.2285 16.379 35.3723 18.4376 34.6151 19.0437Z"/>
<path d="M43.1379 19.4706C46.0268 19.1189 48.238 17.4343 49.3643 16.4112C46.7006 15.6091 44.1779 14.491 40.5334 15.7324C37.7007 16.6972 35.8717 18.8154 35.2626 19.6955C36.4226 19.6197 40.3164 19.8141 43.1379 19.4706Z"/>
<path d="M35.2654 19.6962L49.3674 16.4122C48.7039 17.5836 46.3437 19.9872 42.6172 20.2855C38.8907 20.5837 36.173 20.038 35.2654 19.6962Z"/>
<path d="M47.0708 10.1339C49.4899 8.51591 50.7026 6.01457 51.2457 4.59325C48.5068 5.07995 45.751 5.22104 43.0593 7.97387C40.9672 10.1135 40.2913 12.8292 40.1451 13.8895C41.1459 13.2982 44.7082 11.714 47.0708 10.1339Z"/>
<path d="M40.147 13.889L51.248 4.59283C51.1847 5.93764 50.1637 9.14777 46.9731 11.0961C43.7825 13.0444 41.1112 13.7843 40.147 13.889Z"/>
<path d="M56.2605 16.6245C54.8498 14.079 52.4582 12.662 51.0871 12.0023C51.3438 14.7722 51.2547 17.5302 53.7736 20.442C55.7314 22.7052 58.3813 23.6051 59.4257 23.8391C58.92 22.7925 57.6382 19.1106 56.2605 16.6245Z"/>
<path d="M59.4254 23.8367L51.0869 11.9995C52.4218 12.1746 55.5356 13.4596 57.2112 16.8015C58.8868 20.1435 59.4014 22.8671 59.4254 23.8367Z"/>
<path d="M64.9252 17.3123C66.3942 14.8 66.3922 12.0202 66.2597 10.5044C64.0088 12.1389 61.5915 13.4698 60.3731 17.122C59.426 19.9607 60.0046 22.6988 60.3363 23.7164C60.9783 22.7473 63.4904 19.7659 64.9252 17.3123Z"/>
<path d="M60.3383 23.7146L66.2621 10.5025C66.7928 11.7398 67.277 15.0734 65.2582 18.22C63.2395 21.3665 61.1599 23.1992 60.3383 23.7146Z"/>
<path d="M59.8748 8.52925C60.0516 5.62435 58.795 3.14482 57.9925 1.85205C56.7218 4.32658 55.1656 6.60538 55.727 10.4143C56.1634 13.3749 57.9156 15.5569 58.671 16.3152C58.8063 15.1607 59.7022 11.3663 59.8748 8.52925Z"/>
<path d="M58.6718 16.3131L57.9936 1.8497C59.0257 2.7142 60.9625 5.47028 60.5816 9.18927C60.2006 12.9083 59.1722 15.4823 58.6718 16.3131Z"/>
<path d="M66.6909 28.1548C68.1242 25.622 68.0827 22.8425 67.9288 21.3287C65.7012 22.9949 63.3031 24.36 62.1366 28.0292C61.2299 30.881 61.8473 33.6106 62.1934 34.6234C62.8215 33.6453 65.2911 30.6286 66.6909 28.1548Z"/>
<path d="M62.1953 34.6221L67.931 21.3273C68.4792 22.5569 69.0106 25.8833 67.0367 29.0582C65.0628 32.2331 63.0094 34.095 62.1953 34.6221Z"/>
<path d="M70.6315 35.902C73.5412 35.8419 75.9103 34.3876 77.1335 33.4827C74.5637 32.4175 72.1659 31.0519 68.4152 31.9214C65.5 32.5972 63.4677 34.5211 62.7735 35.3357C63.9352 35.3767 67.7898 35.9608 70.6315 35.902Z"/>
<path d="M62.7761 35.3366L77.1364 33.4839C76.3588 34.5829 73.7694 36.7375 70.0317 36.6604C66.2941 36.5833 63.6449 35.7677 62.7761 35.3366Z"/>
<path d="M75.4813 27.0067C78.0505 25.6396 79.508 23.2725 80.191 21.9129C77.4171 22.1223 74.6611 21.9862 71.7068 24.4552C69.4105 26.3741 68.4656 29.0083 68.2138 30.0486C69.2689 29.5607 72.9721 28.3419 75.4813 27.0067Z"/>
<path d="M68.216 30.0481L80.1936 21.9125C79.9957 23.2442 78.6578 26.3357 75.2878 27.9541C71.9179 29.5725 69.1858 30.0406 68.216 30.0481Z"/>
<path d="M76.5712 9.11864C78.0045 6.58576 77.963 3.80628 77.809 2.29253C75.5815 3.95872 73.1834 5.32385 72.0169 8.99299C71.1102 11.8448 71.7275 14.5744 72.0737 15.5872C72.7018 14.6091 75.1714 11.5924 76.5712 9.11864Z"/>
<path d="M72.0755 15.5854L77.8113 2.29063C78.3595 3.52026 78.8909 6.84667 76.917 10.0215C74.9431 13.1964 72.8897 15.0584 72.0755 15.5854Z"/>
<path d="M80.5129 16.8654C83.4225 16.8052 85.7916 15.351 87.0148 14.446C84.4451 13.3808 82.0472 12.0153 78.2965 12.8847C75.3813 13.5605 73.349 15.4845 72.6548 16.2991C73.8165 16.34 77.6712 16.9241 80.5129 16.8654Z"/>
<path d="M72.6568 16.3L87.0171 14.4472C86.2394 15.5462 83.6501 17.7009 79.9124 17.6238C76.1747 17.5466 73.5256 16.7311 72.6568 16.3Z"/>
<path d="M85.362 7.97003C87.9312 6.60292 89.3887 4.23585 90.0717 2.8762C87.2979 3.08567 84.5418 2.94957 81.5875 5.41848C79.2913 7.33745 78.3463 9.97164 78.0945 11.0119C79.1496 10.524 82.8529 9.30521 85.362 7.97003Z"/>
<path d="M78.0971 11.0117L90.0746 2.87609C89.8768 4.20778 88.5389 7.29928 85.1689 8.91767C81.7989 10.5361 79.0669 11.0042 78.0971 11.0117Z"/>
<path d="M5.48821 30.2838C6.92148 27.7509 6.87998 24.9714 6.72604 23.4577C4.49849 25.1238 2.10038 26.489 0.933875 30.1581C0.0272073 33.01 0.644538 35.7396 0.990715 36.7523C1.61881 35.7742 4.08841 32.7575 5.48821 30.2838Z"/>
<path d="M0.992772 36.7506L6.72851 23.4558C7.27669 24.6854 7.8081 28.0118 5.8342 31.1867C3.8603 34.3615 1.80694 36.2235 0.992772 36.7506Z"/>
<path d="M9.43034 38.031C12.34 37.9709 14.7091 36.5166 15.9322 35.6117C13.3625 34.5464 10.9647 33.1809 7.21402 34.0503C4.29882 34.7261 2.26653 36.6501 1.57227 37.4647C2.73397 37.5056 6.58863 38.0897 9.43034 38.031Z"/>
<path d="M1.5738 37.4655L15.9341 35.6127C15.1564 36.7117 12.5671 38.8664 8.82942 38.7893C5.09175 38.7121 2.44259 37.8966 1.5738 37.4655Z"/>
<path d="M14.2792 29.1352C16.8484 27.7681 18.3059 25.4011 18.9889 24.0414C16.215 24.2509 13.4589 24.1148 10.5046 26.5837C8.20841 28.5027 7.26347 31.1368 7.01168 32.1771C8.06676 31.6892 11.77 30.4704 14.2792 29.1352Z"/>
<path d="M7.01356 32.1771L18.9912 24.0415C18.7933 25.3732 17.4554 28.4647 14.0854 30.0831C10.7155 31.7015 7.98342 32.1697 7.01356 32.1771Z"/>
</mask>
<path d="M16.854 15.2917C15.1915 12.903 12.6681 11.7369 11.2369 11.2202C11.7743 13.9496 11.9665 16.7023 14.7687 19.3425C16.9468 21.3946 19.6746 22.0201 20.7374 22.1466C20.1276 21.1569 18.4777 17.6246 16.854 15.2917Z" fill="#F3FFE5"/>
<path d="M20.7367 22.1442L11.2364 11.2175C12.5821 11.2558 15.8106 12.2171 17.8178 15.3711C19.8249 18.525 20.6141 21.1821 20.7367 22.1442Z" fill="#678D66" fill-opacity="0.1"/>
<path d="M25.5434 15.0935C26.7491 12.4447 26.464 9.67953 26.178 8.18512C24.1051 10.0402 21.8359 11.6104 20.9956 15.3676C20.3425 18.288 21.1968 20.953 21.6305 21.9315C22.1704 20.9021 24.3659 17.6804 25.5434 15.0935Z" fill="#F3FFE5"/>
<path d="M21.6321 21.9296L26.18 8.18308C26.8339 9.35992 27.6549 12.6269 25.967 15.9626C24.2791 19.2983 22.3969 21.3332 21.6321 21.9296Z" fill="#678D66" fill-opacity="0.1"/>
<path d="M19.6253 6.87023C19.5054 3.96242 18.0028 1.62371 17.073 0.419355C16.0607 3.0104 14.7447 5.43579 15.6909 9.1678C16.4264 12.0685 18.3917 14.0609 19.2204 14.7383C19.2375 13.576 19.7423 9.71013 19.6253 6.87023Z" fill="#F3FFE5"/>
<path d="M19.2208 14.7361L17.0737 0.41687C18.1884 1.17181 20.3958 3.71638 20.3954 7.45483C20.395 11.1933 19.6341 13.8586 19.2208 14.7361Z" fill="#678D66" fill-opacity="0.1"/>
<path d="M25.027 32.8259C23.8466 30.1658 21.5894 28.5432 20.282 27.765C20.2931 30.5467 19.9608 33.2861 22.2128 36.4089C23.9631 38.8361 26.5232 39.9665 27.5429 40.2918C27.1315 39.2047 26.1798 35.4239 25.027 32.8259Z" fill="#F3FFE5"/>
<path d="M27.5426 40.2893L20.2819 27.7621C21.596 28.0544 24.5843 29.6093 25.9582 33.0861C27.3322 36.563 27.6043 39.3214 27.5426 40.2893Z" fill="#678D66" fill-opacity="0.1"/>
<path d="M33.5972 34.2756C35.2824 31.9029 35.5258 29.1337 35.5277 27.6122C33.1412 29.0415 30.6159 30.1538 29.0797 33.6842C27.8857 36.4281 28.2202 39.2066 28.4609 40.2495C29.1858 39.3409 31.9514 36.593 33.5972 34.2756Z" fill="#F3FFE5"/>
<path d="M28.4631 40.2481L35.5304 27.6107C35.9497 28.89 36.1376 32.2533 33.849 35.2093C31.5603 38.1653 29.327 39.8072 28.4631 40.2481Z" fill="#678D66" fill-opacity="0.1"/>
<path d="M29.3418 25.0809C29.7744 22.203 28.7416 19.6222 28.0564 18.2636C26.5721 20.6162 24.8209 22.7487 25.0438 26.5924C25.217 29.5799 26.7697 31.9082 27.4552 32.7301C27.6919 31.5921 28.9193 27.8916 29.3418 25.0809Z" fill="#F3FFE5"/>
<path d="M27.4565 32.7282L28.058 18.2614C29.0097 19.2137 30.6957 22.13 29.9878 25.8008C29.2799 29.4717 28.0283 31.9448 27.4565 32.7282Z" fill="#678D66" fill-opacity="0.1"/>
<path d="M43.0093 28.1813C45.2845 26.3665 46.2835 23.7725 46.7058 22.3107C44.0173 23.0249 41.2829 23.3962 38.8311 26.3646C36.9254 28.6719 36.4792 31.4346 36.4223 32.5034C37.3701 31.8305 40.7873 29.9537 43.0093 28.1813Z" fill="#F3FFE5"/>
<path d="M36.4248 32.5026L46.7087 22.3099C46.7583 23.6553 46.0096 26.9396 42.9932 29.1481C39.9769 31.3567 37.3769 32.3176 36.4248 32.5026Z" fill="#678D66" fill-opacity="0.1"/>
<path d="M43.7741 36.8398C46.4959 37.8701 49.2366 37.4053 50.7092 37.0224C48.7228 35.0749 47.008 32.913 43.2039 32.3195C40.2472 31.8582 37.6436 32.8845 36.6955 33.3811C37.7579 33.8527 41.1159 35.8335 43.7741 36.8398Z" fill="#F3FFE5"/>
<path d="M36.697 33.3826L50.7108 37.0243C49.5792 37.7535 46.3727 38.7859 42.934 37.3191C39.4953 35.8523 37.342 34.1068 36.697 33.3826Z" fill="#678D66" fill-opacity="0.1"/>
<path d="M51.5934 30.3974C54.4872 30.0882 56.723 28.4363 57.8641 27.4298C55.2126 26.5887 52.7065 25.4337 49.0442 26.6213C46.1976 27.5444 44.3376 29.6355 43.7157 30.5065C44.8767 30.4478 48.7672 30.6994 51.5934 30.3974Z" fill="#F3FFE5"/>
<path d="M43.7178 30.5072L57.8665 27.4308C57.1859 28.5923 54.7907 30.961 51.0602 31.2044C47.3296 31.4478 44.6203 30.8623 43.7178 30.5072Z" fill="#678D66" fill-opacity="0.1"/>
<path d="M38.4392 12.1585C39.6112 9.49457 39.291 6.73327 38.986 5.24261C36.9369 7.12387 34.6878 8.72269 33.8953 12.4903C33.2793 15.4188 34.1673 18.0727 34.6134 19.0456C35.1402 18.0094 37.2947 14.7601 38.4392 12.1585Z" fill="#F3FFE5"/>
<path d="M34.6151 19.0437L38.9881 5.2405C39.6569 6.40894 40.5193 9.66525 38.8739 13.0221C37.2285 16.379 35.3723 18.4376 34.6151 19.0437Z" fill="#678D66" fill-opacity="0.1"/>
<path d="M43.1379 19.4706C46.0268 19.1189 48.238 17.4343 49.3643 16.4112C46.7006 15.6091 44.1779 14.491 40.5334 15.7324C37.7007 16.6972 35.8717 18.8154 35.2626 19.6955C36.4226 19.6197 40.3164 19.8141 43.1379 19.4706Z" fill="#F3FFE5"/>
<path d="M35.2654 19.6962L49.3674 16.4122C48.7039 17.5836 46.3437 19.9872 42.6172 20.2855C38.8907 20.5837 36.173 20.038 35.2654 19.6962Z" fill="#678D66" fill-opacity="0.1"/>
<path d="M47.0708 10.1339C49.4899 8.51591 50.7026 6.01457 51.2457 4.59325C48.5068 5.07995 45.751 5.22104 43.0593 7.97387C40.9672 10.1135 40.2913 12.8292 40.1451 13.8895C41.1459 13.2982 44.7082 11.714 47.0708 10.1339Z" fill="#F3FFE5"/>
<path d="M40.147 13.889L51.248 4.59283C51.1847 5.93764 50.1637 9.14777 46.9731 11.0961C43.7825 13.0444 41.1112 13.7843 40.147 13.889Z" fill="#678D66" fill-opacity="0.1"/>
<path d="M56.2605 16.6245C54.8498 14.079 52.4582 12.662 51.0871 12.0023C51.3438 14.7722 51.2547 17.5302 53.7736 20.442C55.7314 22.7052 58.3813 23.6051 59.4257 23.8391C58.92 22.7925 57.6382 19.1106 56.2605 16.6245Z" fill="#F3FFE5"/>
<path d="M59.4254 23.8367L51.0869 11.9995C52.4218 12.1746 55.5356 13.4596 57.2112 16.8015C58.8868 20.1435 59.4014 22.8671 59.4254 23.8367Z" fill="#678D66" fill-opacity="0.1"/>
<path d="M64.9252 17.3123C66.3942 14.8 66.3922 12.0202 66.2597 10.5044C64.0088 12.1389 61.5915 13.4698 60.3731 17.122C59.426 19.9607 60.0046 22.6988 60.3363 23.7164C60.9783 22.7473 63.4904 19.7659 64.9252 17.3123Z" fill="#F3FFE5"/>
<path d="M60.3383 23.7146L66.2621 10.5025C66.7928 11.7398 67.277 15.0734 65.2582 18.22C63.2395 21.3665 61.1599 23.1992 60.3383 23.7146Z" fill="#678D66" fill-opacity="0.1"/>
<path d="M59.8748 8.52925C60.0516 5.62435 58.795 3.14482 57.9925 1.85205C56.7218 4.32658 55.1656 6.60538 55.727 10.4143C56.1634 13.3749 57.9156 15.5569 58.671 16.3152C58.8063 15.1607 59.7022 11.3663 59.8748 8.52925Z" fill="#F3FFE5"/>
<path d="M58.6718 16.3131L57.9936 1.8497C59.0257 2.7142 60.9625 5.47028 60.5816 9.18927C60.2006 12.9083 59.1722 15.4823 58.6718 16.3131Z" fill="#678D66" fill-opacity="0.1"/>
<path d="M66.6909 28.1548C68.1242 25.622 68.0827 22.8425 67.9288 21.3287C65.7012 22.9949 63.3031 24.36 62.1366 28.0292C61.2299 30.881 61.8473 33.6106 62.1934 34.6234C62.8215 33.6453 65.2911 30.6286 66.6909 28.1548Z" fill="#F3FFE5"/>
<path d="M62.1953 34.6221L67.931 21.3273C68.4792 22.5569 69.0106 25.8833 67.0367 29.0582C65.0628 32.2331 63.0094 34.095 62.1953 34.6221Z" fill="#678D66" fill-opacity="0.1"/>
<path d="M70.6315 35.902C73.5412 35.8419 75.9103 34.3876 77.1335 33.4827C74.5637 32.4175 72.1659 31.0519 68.4152 31.9214C65.5 32.5972 63.4677 34.5211 62.7735 35.3357C63.9352 35.3767 67.7898 35.9608 70.6315 35.902Z" fill="#F3FFE5"/>
<path d="M62.7761 35.3366L77.1364 33.4839C76.3588 34.5829 73.7694 36.7375 70.0317 36.6604C66.2941 36.5833 63.6449 35.7677 62.7761 35.3366Z" fill="#678D66" fill-opacity="0.1"/>
<path d="M75.4813 27.0067C78.0505 25.6396 79.508 23.2725 80.191 21.9129C77.4171 22.1223 74.6611 21.9862 71.7068 24.4552C69.4105 26.3741 68.4656 29.0083 68.2138 30.0486C69.2689 29.5607 72.9721 28.3419 75.4813 27.0067Z" fill="#F3FFE5"/>
<path d="M68.216 30.0481L80.1936 21.9125C79.9957 23.2442 78.6578 26.3357 75.2878 27.9541C71.9179 29.5725 69.1858 30.0406 68.216 30.0481Z" fill="#678D66" fill-opacity="0.1"/>
<path d="M76.5712 9.11864C78.0045 6.58576 77.963 3.80628 77.809 2.29253C75.5815 3.95872 73.1834 5.32385 72.0169 8.99299C71.1102 11.8448 71.7275 14.5744 72.0737 15.5872C72.7018 14.6091 75.1714 11.5924 76.5712 9.11864Z" fill="#F3FFE5"/>
<path d="M72.0755 15.5854L77.8113 2.29063C78.3595 3.52026 78.8909 6.84667 76.917 10.0215C74.9431 13.1964 72.8897 15.0584 72.0755 15.5854Z" fill="#678D66" fill-opacity="0.1"/>
<path d="M80.5129 16.8654C83.4225 16.8052 85.7916 15.351 87.0148 14.446C84.4451 13.3808 82.0472 12.0153 78.2965 12.8847C75.3813 13.5605 73.349 15.4845 72.6548 16.2991C73.8165 16.34 77.6712 16.9241 80.5129 16.8654Z" fill="#F3FFE5"/>
<path d="M72.6568 16.3L87.0171 14.4472C86.2394 15.5462 83.6501 17.7009 79.9124 17.6238C76.1747 17.5466 73.5256 16.7311 72.6568 16.3Z" fill="#678D66" fill-opacity="0.1"/>
<path d="M85.362 7.97003C87.9312 6.60292 89.3887 4.23585 90.0717 2.8762C87.2979 3.08567 84.5418 2.94957 81.5875 5.41848C79.2913 7.33745 78.3463 9.97164 78.0945 11.0119C79.1496 10.524 82.8529 9.30521 85.362 7.97003Z" fill="#F3FFE5"/>
<path d="M78.0971 11.0117L90.0746 2.87609C89.8768 4.20778 88.5389 7.29928 85.1689 8.91767C81.7989 10.5361 79.0669 11.0042 78.0971 11.0117Z" fill="#678D66" fill-opacity="0.1"/>
<path d="M5.48821 30.2838C6.92148 27.7509 6.87998 24.9714 6.72604 23.4577C4.49849 25.1238 2.10038 26.489 0.933875 30.1581C0.0272073 33.01 0.644538 35.7396 0.990715 36.7523C1.61881 35.7742 4.08841 32.7575 5.48821 30.2838Z" fill="#F3FFE5"/>
<path d="M0.992772 36.7506L6.72851 23.4558C7.27669 24.6854 7.8081 28.0118 5.8342 31.1867C3.8603 34.3615 1.80694 36.2235 0.992772 36.7506Z" fill="#678D66" fill-opacity="0.1"/>
<path d="M9.43034 38.031C12.34 37.9709 14.7091 36.5166 15.9322 35.6117C13.3625 34.5464 10.9647 33.1809 7.21402 34.0503C4.29882 34.7261 2.26653 36.6501 1.57227 37.4647C2.73397 37.5056 6.58863 38.0897 9.43034 38.031Z" fill="#F3FFE5"/>
<path d="M1.5738 37.4655L15.9341 35.6127C15.1564 36.7117 12.5671 38.8664 8.82942 38.7893C5.09175 38.7121 2.44259 37.8966 1.5738 37.4655Z" fill="#678D66" fill-opacity="0.1"/>
<path d="M14.2792 29.1352C16.8484 27.7681 18.3059 25.4011 18.9889 24.0414C16.215 24.2509 13.4589 24.1148 10.5046 26.5837C8.20841 28.5027 7.26347 31.1368 7.01168 32.1771C8.06676 31.6892 11.77 30.4704 14.2792 29.1352Z" fill="#F3FFE5"/>
<path d="M7.01356 32.1771L18.9912 24.0415C18.7933 25.3732 17.4554 28.4647 14.0854 30.0831C10.7155 31.7015 7.98342 32.1697 7.01356 32.1771Z" fill="#678D66" fill-opacity="0.1"/>
<path d="M16.854 15.2917C15.1915 12.903 12.6681 11.7369 11.2369 11.2202C11.7743 13.9496 11.9665 16.7023 14.7687 19.3425C16.9468 21.3946 19.6746 22.0201 20.7374 22.1466C20.1276 21.1569 18.4777 17.6246 16.854 15.2917Z" stroke="#678D66" stroke-opacity="0.1" stroke-width="2" mask="url(#path-1-inside-1_596_943)"/>
<path d="M20.7367 22.1442L11.2364 11.2175C12.5821 11.2558 15.8106 12.2171 17.8178 15.3711C19.8249 18.525 20.6141 21.1821 20.7367 22.1442Z" stroke="#678D66" stroke-opacity="0.1" stroke-width="2" mask="url(#path-1-inside-1_596_943)"/>
<path d="M25.5434 15.0935C26.7491 12.4447 26.464 9.67953 26.178 8.18512C24.1051 10.0402 21.8359 11.6104 20.9956 15.3676C20.3425 18.288 21.1968 20.953 21.6305 21.9315C22.1704 20.9021 24.3659 17.6804 25.5434 15.0935Z" stroke="#678D66" stroke-opacity="0.1" stroke-width="2" mask="url(#path-1-inside-1_596_943)"/>
<path d="M21.6321 21.9296L26.18 8.18308C26.8339 9.35992 27.6549 12.6269 25.967 15.9626C24.2791 19.2983 22.3969 21.3332 21.6321 21.9296Z" stroke="#678D66" stroke-opacity="0.1" stroke-width="2" mask="url(#path-1-inside-1_596_943)"/>
<path d="M19.6253 6.87023C19.5054 3.96242 18.0028 1.62371 17.073 0.419355C16.0607 3.0104 14.7447 5.43579 15.6909 9.1678C16.4264 12.0685 18.3917 14.0609 19.2204 14.7383C19.2375 13.576 19.7423 9.71013 19.6253 6.87023Z" stroke="#678D66" stroke-opacity="0.1" stroke-width="2" mask="url(#path-1-inside-1_596_943)"/>
<path d="M19.2208 14.7361L17.0737 0.41687C18.1884 1.17181 20.3958 3.71638 20.3954 7.45483C20.395 11.1933 19.6341 13.8586 19.2208 14.7361Z" stroke="#678D66" stroke-opacity="0.1" stroke-width="2" mask="url(#path-1-inside-1_596_943)"/>
<path d="M25.027 32.8259C23.8466 30.1658 21.5894 28.5432 20.282 27.765C20.2931 30.5467 19.9608 33.2861 22.2128 36.4089C23.9631 38.8361 26.5232 39.9665 27.5429 40.2918C27.1315 39.2047 26.1798 35.4239 25.027 32.8259Z" stroke="#678D66" stroke-opacity="0.1" stroke-width="2" mask="url(#path-1-inside-1_596_943)"/>
<path d="M27.5426 40.2893L20.2819 27.7621C21.596 28.0544 24.5843 29.6093 25.9582 33.0861C27.3322 36.563 27.6043 39.3214 27.5426 40.2893Z" stroke="#678D66" stroke-opacity="0.1" stroke-width="2" mask="url(#path-1-inside-1_596_943)"/>
<path d="M33.5972 34.2756C35.2824 31.9029 35.5258 29.1337 35.5277 27.6122C33.1412 29.0415 30.6159 30.1538 29.0797 33.6842C27.8857 36.4281 28.2202 39.2066 28.4609 40.2495C29.1858 39.3409 31.9514 36.593 33.5972 34.2756Z" stroke="#678D66" stroke-opacity="0.1" stroke-width="2" mask="url(#path-1-inside-1_596_943)"/>
<path d="M28.4631 40.2481L35.5304 27.6107C35.9497 28.89 36.1376 32.2533 33.849 35.2093C31.5603 38.1653 29.327 39.8072 28.4631 40.2481Z" stroke="#678D66" stroke-opacity="0.1" stroke-width="2" mask="url(#path-1-inside-1_596_943)"/>
<path d="M29.3418 25.0809C29.7744 22.203 28.7416 19.6222 28.0564 18.2636C26.5721 20.6162 24.8209 22.7487 25.0438 26.5924C25.217 29.5799 26.7697 31.9082 27.4552 32.7301C27.6919 31.5921 28.9193 27.8916 29.3418 25.0809Z" stroke="#678D66" stroke-opacity="0.1" stroke-width="2" mask="url(#path-1-inside-1_596_943)"/>
<path d="M27.4565 32.7282L28.058 18.2614C29.0097 19.2137 30.6957 22.13 29.9878 25.8008C29.2799 29.4717 28.0283 31.9448 27.4565 32.7282Z" stroke="#678D66" stroke-opacity="0.1" stroke-width="2" mask="url(#path-1-inside-1_596_943)"/>
<path d="M43.0093 28.1813C45.2845 26.3665 46.2835 23.7725 46.7058 22.3107C44.0173 23.0249 41.2829 23.3962 38.8311 26.3646C36.9254 28.6719 36.4792 31.4346 36.4223 32.5034C37.3701 31.8305 40.7873 29.9537 43.0093 28.1813Z" stroke="#678D66" stroke-opacity="0.1" stroke-width="2" mask="url(#path-1-inside-1_596_943)"/>
<path d="M36.4248 32.5026L46.7087 22.3099C46.7583 23.6553 46.0096 26.9396 42.9932 29.1481C39.9769 31.3567 37.3769 32.3176 36.4248 32.5026Z" stroke="#678D66" stroke-opacity="0.1" stroke-width="2" mask="url(#path-1-inside-1_596_943)"/>
<path d="M43.7741 36.8398C46.4959 37.8701 49.2366 37.4053 50.7092 37.0224C48.7228 35.0749 47.008 32.913 43.2039 32.3195C40.2472 31.8582 37.6436 32.8845 36.6955 33.3811C37.7579 33.8527 41.1159 35.8335 43.7741 36.8398Z" stroke="#678D66" stroke-opacity="0.1" stroke-width="2" mask="url(#path-1-inside-1_596_943)"/>
<path d="M36.697 33.3826L50.7108 37.0243C49.5792 37.7535 46.3727 38.7859 42.934 37.3191C39.4953 35.8523 37.342 34.1068 36.697 33.3826Z" stroke="#678D66" stroke-opacity="0.1" stroke-width="2" mask="url(#path-1-inside-1_596_943)"/>
<path d="M51.5934 30.3974C54.4872 30.0882 56.723 28.4363 57.8641 27.4298C55.2126 26.5887 52.7065 25.4337 49.0442 26.6213C46.1976 27.5444 44.3376 29.6355 43.7157 30.5065C44.8767 30.4478 48.7672 30.6994 51.5934 30.3974Z" stroke="#678D66" stroke-opacity="0.1" stroke-width="2" mask="url(#path-1-inside-1_596_943)"/>
<path d="M43.7178 30.5072L57.8665 27.4308C57.1859 28.5923 54.7907 30.961 51.0602 31.2044C47.3296 31.4478 44.6203 30.8623 43.7178 30.5072Z" stroke="#678D66" stroke-opacity="0.1" stroke-width="2" mask="url(#path-1-inside-1_596_943)"/>
<path d="M38.4392 12.1585C39.6112 9.49457 39.291 6.73327 38.986 5.24261C36.9369 7.12387 34.6878 8.72269 33.8953 12.4903C33.2793 15.4188 34.1673 18.0727 34.6134 19.0456C35.1402 18.0094 37.2947 14.7601 38.4392 12.1585Z" stroke="#678D66" stroke-opacity="0.1" stroke-width="2" mask="url(#path-1-inside-1_596_943)"/>
<path d="M34.6151 19.0437L38.9881 5.2405C39.6569 6.40894 40.5193 9.66525 38.8739 13.0221C37.2285 16.379 35.3723 18.4376 34.6151 19.0437Z" stroke="#678D66" stroke-opacity="0.1" stroke-width="2" mask="url(#path-1-inside-1_596_943)"/>
<path d="M43.1379 19.4706C46.0268 19.1189 48.238 17.4343 49.3643 16.4112C46.7006 15.6091 44.1779 14.491 40.5334 15.7324C37.7007 16.6972 35.8717 18.8154 35.2626 19.6955C36.4226 19.6197 40.3164 19.8141 43.1379 19.4706Z" stroke="#678D66" stroke-opacity="0.1" stroke-width="2" mask="url(#path-1-inside-1_596_943)"/>
<path d="M35.2654 19.6962L49.3674 16.4122C48.7039 17.5836 46.3437 19.9872 42.6172 20.2855C38.8907 20.5837 36.173 20.038 35.2654 19.6962Z" stroke="#678D66" stroke-opacity="0.1" stroke-width="2" mask="url(#path-1-inside-1_596_943)"/>
<path d="M47.0708 10.1339C49.4899 8.51591 50.7026 6.01457 51.2457 4.59325C48.5068 5.07995 45.751 5.22104 43.0593 7.97387C40.9672 10.1135 40.2913 12.8292 40.1451 13.8895C41.1459 13.2982 44.7082 11.714 47.0708 10.1339Z" stroke="#678D66" stroke-opacity="0.1" stroke-width="2" mask="url(#path-1-inside-1_596_943)"/>
<path d="M40.147 13.889L51.248 4.59283C51.1847 5.93764 50.1637 9.14777 46.9731 11.0961C43.7825 13.0444 41.1112 13.7843 40.147 13.889Z" stroke="#678D66" stroke-opacity="0.1" stroke-width="2" mask="url(#path-1-inside-1_596_943)"/>
<path d="M56.2605 16.6245C54.8498 14.079 52.4582 12.662 51.0871 12.0023C51.3438 14.7722 51.2547 17.5302 53.7736 20.442C55.7314 22.7052 58.3813 23.6051 59.4257 23.8391C58.92 22.7925 57.6382 19.1106 56.2605 16.6245Z" stroke="#678D66" stroke-opacity="0.1" stroke-width="2" mask="url(#path-1-inside-1_596_943)"/>
<path d="M59.4254 23.8367L51.0869 11.9995C52.4218 12.1746 55.5356 13.4596 57.2112 16.8015C58.8868 20.1435 59.4014 22.8671 59.4254 23.8367Z" stroke="#678D66" stroke-opacity="0.1" stroke-width="2" mask="url(#path-1-inside-1_596_943)"/>
<path d="M64.9252 17.3123C66.3942 14.8 66.3922 12.0202 66.2597 10.5044C64.0088 12.1389 61.5915 13.4698 60.3731 17.122C59.426 19.9607 60.0046 22.6988 60.3363 23.7164C60.9783 22.7473 63.4904 19.7659 64.9252 17.3123Z" stroke="#678D66" stroke-opacity="0.1" stroke-width="2" mask="url(#path-1-inside-1_596_943)"/>
<path d="M60.3383 23.7146L66.2621 10.5025C66.7928 11.7398 67.277 15.0734 65.2582 18.22C63.2395 21.3665 61.1599 23.1992 60.3383 23.7146Z" stroke="#678D66" stroke-opacity="0.1" stroke-width="2" mask="url(#path-1-inside-1_596_943)"/>
<path d="M59.8748 8.52925C60.0516 5.62435 58.795 3.14482 57.9925 1.85205C56.7218 4.32658 55.1656 6.60538 55.727 10.4143C56.1634 13.3749 57.9156 15.5569 58.671 16.3152C58.8063 15.1607 59.7022 11.3663 59.8748 8.52925Z" stroke="#678D66" stroke-opacity="0.1" stroke-width="2" mask="url(#path-1-inside-1_596_943)"/>
<path d="M58.6718 16.3131L57.9936 1.8497C59.0257 2.7142 60.9625 5.47028 60.5816 9.18927C60.2006 12.9083 59.1722 15.4823 58.6718 16.3131Z" stroke="#678D66" stroke-opacity="0.1" stroke-width="2" mask="url(#path-1-inside-1_596_943)"/>
<path d="M66.6909 28.1548C68.1242 25.622 68.0827 22.8425 67.9288 21.3287C65.7012 22.9949 63.3031 24.36 62.1366 28.0292C61.2299 30.881 61.8473 33.6106 62.1934 34.6234C62.8215 33.6453 65.2911 30.6286 66.6909 28.1548Z" stroke="#678D66" stroke-opacity="0.1" stroke-width="2" mask="url(#path-1-inside-1_596_943)"/>
<path d="M62.1953 34.6221L67.931 21.3273C68.4792 22.5569 69.0106 25.8833 67.0367 29.0582C65.0628 32.2331 63.0094 34.095 62.1953 34.6221Z" stroke="#678D66" stroke-opacity="0.1" stroke-width="2" mask="url(#path-1-inside-1_596_943)"/>
<path d="M70.6315 35.902C73.5412 35.8419 75.9103 34.3876 77.1335 33.4827C74.5637 32.4175 72.1659 31.0519 68.4152 31.9214C65.5 32.5972 63.4677 34.5211 62.7735 35.3357C63.9352 35.3767 67.7898 35.9608 70.6315 35.902Z" stroke="#678D66" stroke-opacity="0.1" stroke-width="2" mask="url(#path-1-inside-1_596_943)"/>
<path d="M62.7761 35.3366L77.1364 33.4839C76.3588 34.5829 73.7694 36.7375 70.0317 36.6604C66.2941 36.5833 63.6449 35.7677 62.7761 35.3366Z" stroke="#678D66" stroke-opacity="0.1" stroke-width="2" mask="url(#path-1-inside-1_596_943)"/>
<path d="M75.4813 27.0067C78.0505 25.6396 79.508 23.2725 80.191 21.9129C77.4171 22.1223 74.6611 21.9862 71.7068 24.4552C69.4105 26.3741 68.4656 29.0083 68.2138 30.0486C69.2689 29.5607 72.9721 28.3419 75.4813 27.0067Z" stroke="#678D66" stroke-opacity="0.1" stroke-width="2" mask="url(#path-1-inside-1_596_943)"/>
<path d="M68.216 30.0481L80.1936 21.9125C79.9957 23.2442 78.6578 26.3357 75.2878 27.9541C71.9179 29.5725 69.1858 30.0406 68.216 30.0481Z" stroke="#678D66" stroke-opacity="0.1" stroke-width="2" mask="url(#path-1-inside-1_596_943)"/>
<path d="M76.5712 9.11864C78.0045 6.58576 77.963 3.80628 77.809 2.29253C75.5815 3.95872 73.1834 5.32385 72.0169 8.99299C71.1102 11.8448 71.7275 14.5744 72.0737 15.5872C72.7018 14.6091 75.1714 11.5924 76.5712 9.11864Z" stroke="#678D66" stroke-opacity="0.1" stroke-width="2" mask="url(#path-1-inside-1_596_943)"/>
<path d="M72.0755 15.5854L77.8113 2.29063C78.3595 3.52026 78.8909 6.84667 76.917 10.0215C74.9431 13.1964 72.8897 15.0584 72.0755 15.5854Z" stroke="#678D66" stroke-opacity="0.1" stroke-width="2" mask="url(#path-1-inside-1_596_943)"/>
<path d="M80.5129 16.8654C83.4225 16.8052 85.7916 15.351 87.0148 14.446C84.4451 13.3808 82.0472 12.0153 78.2965 12.8847C75.3813 13.5605 73.349 15.4845 72.6548 16.2991C73.8165 16.34 77.6712 16.9241 80.5129 16.8654Z" stroke="#678D66" stroke-opacity="0.1" stroke-width="2" mask="url(#path-1-inside-1_596_943)"/>
<path d="M72.6568 16.3L87.0171 14.4472C86.2394 15.5462 83.6501 17.7009 79.9124 17.6238C76.1747 17.5466 73.5256 16.7311 72.6568 16.3Z" stroke="#678D66" stroke-opacity="0.1" stroke-width="2" mask="url(#path-1-inside-1_596_943)"/>
<path d="M85.362 7.97003C87.9312 6.60292 89.3887 4.23585 90.0717 2.8762C87.2979 3.08567 84.5418 2.94957 81.5875 5.41848C79.2913 7.33745 78.3463 9.97164 78.0945 11.0119C79.1496 10.524 82.8529 9.30521 85.362 7.97003Z" stroke="#678D66" stroke-opacity="0.1" stroke-width="2" mask="url(#path-1-inside-1_596_943)"/>
<path d="M78.0971 11.0117L90.0746 2.87609C89.8768 4.20778 88.5389 7.29928 85.1689 8.91767C81.7989 10.5361 79.0669 11.0042 78.0971 11.0117Z" stroke="#678D66" stroke-opacity="0.1" stroke-width="2" mask="url(#path-1-inside-1_596_943)"/>
<path d="M5.48821 30.2838C6.92148 27.7509 6.87998 24.9714 6.72604 23.4577C4.49849 25.1238 2.10038 26.489 0.933875 30.1581C0.0272073 33.01 0.644538 35.7396 0.990715 36.7523C1.61881 35.7742 4.08841 32.7575 5.48821 30.2838Z" stroke="#678D66" stroke-opacity="0.1" stroke-width="2" mask="url(#path-1-inside-1_596_943)"/>
<path d="M0.992772 36.7506L6.72851 23.4558C7.27669 24.6854 7.8081 28.0118 5.8342 31.1867C3.8603 34.3615 1.80694 36.2235 0.992772 36.7506Z" stroke="#678D66" stroke-opacity="0.1" stroke-width="2" mask="url(#path-1-inside-1_596_943)"/>
<path d="M9.43034 38.031C12.34 37.9709 14.7091 36.5166 15.9322 35.6117C13.3625 34.5464 10.9647 33.1809 7.21402 34.0503C4.29882 34.7261 2.26653 36.6501 1.57227 37.4647C2.73397 37.5056 6.58863 38.0897 9.43034 38.031Z" stroke="#678D66" stroke-opacity="0.1" stroke-width="2" mask="url(#path-1-inside-1_596_943)"/>
<path d="M1.5738 37.4655L15.9341 35.6127C15.1564 36.7117 12.5671 38.8664 8.82942 38.7893C5.09175 38.7121 2.44259 37.8966 1.5738 37.4655Z" stroke="#678D66" stroke-opacity="0.1" stroke-width="2" mask="url(#path-1-inside-1_596_943)"/>
<path d="M14.2792 29.1352C16.8484 27.7681 18.3059 25.4011 18.9889 24.0414C16.215 24.2509 13.4589 24.1148 10.5046 26.5837C8.20841 28.5027 7.26347 31.1368 7.01168 32.1771C8.06676 31.6892 11.77 30.4704 14.2792 29.1352Z" stroke="#678D66" stroke-opacity="0.1" stroke-width="2" mask="url(#path-1-inside-1_596_943)"/>
<path d="M7.01356 32.1771L18.9912 24.0415C18.7933 25.3732 17.4554 28.4647 14.0854 30.0831C10.7155 31.7015 7.98342 32.1697 7.01356 32.1771Z" stroke="#678D66" stroke-opacity="0.1" stroke-width="2" mask="url(#path-1-inside-1_596_943)"/>
</svg>
