<svg width="70" height="24" viewBox="0 0 70 24" fill="none" xmlns="http://www.w3.org/2000/svg">
<path d="M20.5668 11.0177C18.4336 7.3791 18.4321 3.35043 18.6216 1.15346C21.8865 3.51852 25.3919 5.44352 27.1636 10.7346C28.5407 14.8471 27.7067 18.8162 27.2275 20.2915C26.2957 18.8881 22.6501 14.5713 20.5668 11.0177Z" fill="#11530E"/>
<path d="M27.2251 20.2894L18.6186 1.15121C17.8515 2.94523 17.1552 7.77729 20.086 12.3342C23.0168 16.8911 26.0336 19.5437 27.2251 20.2894Z" fill="#034401"/>
<path d="M15.0274 22.3318C10.8096 22.3092 7.34439 20.2544 5.5518 18.9702C9.25194 17.3696 12.6964 15.3375 18.1507 16.5143C22.3901 17.4289 25.3778 20.1719 26.4019 21.3369C24.7194 21.422 19.1466 22.3539 15.0274 22.3318Z" fill="#11530E"/>
<path d="M26.3988 21.338L5.54828 18.9717C6.69956 20.547 10.4996 23.6119 15.9141 23.4173C21.3286 23.2226 25.1494 21.982 26.3988 21.338Z" fill="#034401"/>
<path d="M7.80251 9.54888C4.04918 7.62479 1.88463 4.22702 0.864776 2.27189C4.88901 2.51391 8.87982 2.25556 13.2156 5.76772C16.5856 8.49756 18.0134 12.2938 18.4013 13.7957C16.8616 13.1121 11.4682 11.428 7.80251 9.54888Z" fill="#11530E"/>
<path d="M18.3982 13.7953L0.861084 2.27169C1.17729 4.19704 3.18459 8.64726 8.10393 10.9177C13.0233 13.1882 16.9926 13.806 18.3982 13.7953Z" fill="#034401"/>
<path d="M48.6489 10.4066C51.1395 7.00264 51.5489 2.99483 51.5828 0.78996C48.0952 2.81232 44.413 4.37253 42.1146 9.45703C40.3282 13.409 40.7561 17.4422 41.0835 18.9584C42.1526 17.6565 46.2165 13.731 48.6489 10.4066Z" fill="#11530E"/>
<path d="M41.0861 18.9566L51.586 0.788025C52.1675 2.65049 52.371 7.52822 48.9939 11.765C45.6168 16.0018 42.3469 18.3353 41.0861 18.9566Z" fill="#034401"/>
<path d="M53.0144 22.2234C57.2127 22.6279 60.8682 20.9345 62.7816 19.8384C59.2625 17.8714 56.0415 15.5011 50.4961 16.1195C46.1859 16.6002 42.9358 19.0266 41.799 20.082C43.4643 20.337 48.9141 21.8283 53.0144 22.2234Z" fill="#11530E"/>
<path d="M41.802 20.0834L62.7849 19.8403C61.4801 21.2909 57.3893 23.9553 52.0223 23.2135C46.6553 22.4716 42.9797 20.8506 41.802 20.0834Z" fill="#034401"/>
<path d="M61.4963 10.2376C65.4252 8.70342 67.9226 5.54225 69.1351 3.70042C65.1071 3.53377 61.1629 2.8727 56.4938 5.92784C52.8648 8.30246 51.06 11.9346 50.522 13.3895C52.123 12.8653 57.6592 11.736 61.4963 10.2376Z" fill="#11530E"/>
<path d="M50.5251 13.3894L69.1388 3.7006C68.6293 5.58404 66.1818 9.80816 61.0578 11.5689C55.9339 13.3296 51.9224 13.5424 50.5251 13.3894Z" fill="#034401"/>
</svg>
