<svg xmlns="http://www.w3.org/2000/svg" viewBox="0 0 282.92 269.79"><defs><style>.cls-1{fill:#fcfbfa;}</style></defs><g id="Layer_2" data-name="Layer 2"><g id="OBJECTS"><path d="M269.49,68.29c-5.23-7.15-12.25-10.6-18.42-13.28a187.65,187.65,0,0,0-24.2-8.61,77,77,0,0,0-44.33.49,78.43,78.43,0,0,0-36.16,24.75c-10.37,12.74-15.44,27.8-14.27,42.41,1.66,20.86,14.32,41.09,32.79,53.09q-1.08,6.17-1.63,12.39a30.78,30.78,0,0,0-12.43-2.65q-1,0-2,.06A31.26,31.26,0,0,0,138,179.88a11.49,11.49,0,0,0-4.1,1.19,157.37,157.37,0,0,1-10.63-12.95c-1.15-1.5-2.28-3-3.42-4.43-9.58-12.24-17.15-27.32-22.5-44.82a135.44,135.44,0,0,1-5.57-29.78c.86-.36,1.8-.72,2.76-1.08L96,87.46a84.83,84.83,0,0,0,13.23-5.93,11.87,11.87,0,0,0,5.87-10.74A77.18,77.18,0,0,0,99.84,28.51,72.81,72.81,0,0,0,85,13.77a20.18,20.18,0,0,0-12.37-4c-6.3,0-12.29,2.48-16.25,4.13-.86.35-1.74.74-2.73,1.21a11.21,11.21,0,0,0-2.53,1.24A84.85,84.85,0,0,0,20.62,43.26C10.56,58,12.32,75.46,15.73,92.09c6.35,31.05,17.42,63.32,32.88,95.91,8.79,18.5,16.3,32.2,24.37,44.4,10,15.17,21.47,25.5,35,31.59a67.7,67.7,0,0,0,28.05,5.8,78.68,78.68,0,0,0,9.16-.54c15.73-1.82,28.15-6.32,36.91-13.36,5.38-4.34,8.61-10.61,10.31-17a22.64,22.64,0,0,0,7.13-.17,24.82,24.82,0,0,0,13.54-.13,22.19,22.19,0,0,0,7.9-4.23,25.46,25.46,0,0,0,5,.48,27.79,27.79,0,0,0,20.13-8.75,21.6,21.6,0,0,0,5.43-1.51c7.42-3.18,12-11,12.92-22a53.68,53.68,0,0,0-.26-9.36c-.09-1-.17-1.95-.23-2.86a11.9,11.9,0,0,0,2.82.34h0a12.26,12.26,0,0,0,9.57-4.62A11.75,11.75,0,0,0,278.49,176c-1.76-7.31-7.83-12.17-15.66-12.68.76-.75,1.5-1.52,2.22-2.3,11.21-12.2,14.67-30.27,17-46.25A61.29,61.29,0,0,0,281.41,91C279.37,82.56,274.47,75.1,269.49,68.29Zm-29,122.41a20.09,20.09,0,0,0-8.31-1.8c-6,0-11.17,2.73-14,7.29a15.16,15.16,0,0,0-12.71,4.67,17,17,0,0,0-5.54-.92,16.64,16.64,0,0,0-11.74,4.7,60.93,60.93,0,0,0-5.92-9.35,11.26,11.26,0,0,0,1.44-1.41L194,181.58l.5.12A90.28,90.28,0,0,0,215,184.34h0a62.61,62.61,0,0,0,7.32-.42,63.45,63.45,0,0,0,19.77-6.07C240.72,181.75,240.47,186.21,240.46,190.7Z"/><path class="cls-1" d="M256.44,58.48c-5.23-7.15-12.25-10.6-18.42-13.28a187.65,187.65,0,0,0-24.2-8.61,77.12,77.12,0,0,0-44.33.49,78.43,78.43,0,0,0-36.16,24.75c-10.37,12.74-15.44,27.8-14.27,42.41,1.66,20.86,14.32,41.09,32.78,53.09-.71,4.11-1.25,8.25-1.62,12.39a30.82,30.82,0,0,0-12.43-2.65c-.65,0-1.31,0-2,.07A31,31,0,0,0,125,170.07a11.44,11.44,0,0,0-4.1,1.19,157.37,157.37,0,0,1-10.63-12.95q-1.73-2.25-3.42-4.43c-9.58-12.24-17.15-27.32-22.5-44.82a134.85,134.85,0,0,1-5.57-29.78c.86-.36,1.8-.72,2.76-1.08L83,77.65a84.83,84.83,0,0,0,13.23-5.93A11.89,11.89,0,0,0,102.05,61,77.18,77.18,0,0,0,86.79,18.7,72.87,72.87,0,0,0,71.89,4,20.13,20.13,0,0,0,59.53,0c-6.3,0-12.29,2.48-16.26,4.13-.85.35-1.73.74-2.73,1.21A11.35,11.35,0,0,0,38,6.58,84.94,84.94,0,0,0,7.57,33.45c-10.06,14.77-8.3,32.2-4.9,48.83C9,113.33,20.1,145.6,35.56,178.19c8.79,18.5,16.3,32.2,24.36,44.4,10,15.17,21.47,25.5,35,31.59A67.78,67.78,0,0,0,123,260a81,81,0,0,0,9.16-.53c15.73-1.83,28.15-6.33,36.91-13.37,5.38-4.33,8.61-10.6,10.31-17a22.57,22.57,0,0,0,7.12-.17,24.85,24.85,0,0,0,13.55-.13,22.28,22.28,0,0,0,7.9-4.23,25.43,25.43,0,0,0,5,.48A27.81,27.81,0,0,0,233,216.28a22,22,0,0,0,5.43-1.5c7.42-3.19,12-11,12.92-22a53.77,53.77,0,0,0-.26-9.37c-.09-1-.17-1.94-.23-2.85a12.44,12.44,0,0,0,2.82.33h0a12.28,12.28,0,0,0,9.57-4.62,11.75,11.75,0,0,0,2.17-10.09c-1.76-7.31-7.84-12.17-15.66-12.68.76-.75,1.5-1.52,2.22-2.3,11.2-12.2,14.67-30.27,17-46.25a61.49,61.49,0,0,0-.67-23.79C266.32,72.75,261.42,65.29,256.44,58.48Zm-29,122.41a20.09,20.09,0,0,0-8.31-1.8c-6,0-11.17,2.73-14,7.29a15.19,15.19,0,0,0-12.71,4.67,17,17,0,0,0-5.54-.92,16.69,16.69,0,0,0-11.74,4.7,59.69,59.69,0,0,0-5.93-9.34,11.36,11.36,0,0,0,1.45-1.41L181,171.77l.5.12A90.28,90.28,0,0,0,202,174.53h0A58.46,58.46,0,0,0,229.08,168C227.67,171.94,227.42,176.4,227.41,180.89Z"/><path d="M152,188.18c11.36,10.74,18,26.58,11.46,41.65-2.92,6.67-10.5,9.47-16.93,11.52a81.12,81.12,0,0,1-23.9,4.09c-35.13.27-52.73-32.4-66.9-59.55a423.92,423.92,0,0,1-36.14-95c-4-16.12-9-34.28.28-49.49,4-6.6,10.69-12.16,16.82-16.72,6.6-4.91,14.85-9.42,23.19-10.08,4.23-.34,9.47,6.17,12.1,9a60.22,60.22,0,0,1,8.31,11.84,59.9,59.9,0,0,1,7.22,26.05c.45-.78.89-1.56,1.34-2.33-4.65,2.72-9.73,4.34-14.71,6.33-2.67,1.07-7.66,2.73-9,5.7-1.6,3.6-1.09,7.7-.72,11.53.55,5.56,1.4,11.11,2.45,16.61a155,155,0,0,0,26.21,60.55,218,218,0,0,0,20.59,24.59c2,2.08,5.19,5.75,8.45,4.34,4.82-2.08,8.14-5.68,13.53-6.94,6.17-1.44,12,2.48,16.34,6.34,2.6,2.3,6.44-1.51,3.83-3.82-5.56-4.93-11.76-8.55-19.39-8.06-3.72.24-7.21,1.82-10.47,3.52a51.14,51.14,0,0,0-6.39,4.22c1.48-1.08,2.28.45.67-.84-8-6.42-14.37-15.64-20.64-23.66-11-14.07-18.86-30.78-24.06-47.8a145.13,145.13,0,0,1-6-32.87c-.16-2.41-.42-4.67,1.78-6.07A41.63,41.63,0,0,1,79,69.33a81.87,81.87,0,0,0,12.57-5.54,2.69,2.69,0,0,0,1.34-2.33A67.82,67.82,0,0,0,79.42,24.19a63.53,63.53,0,0,0-13-12.87C60.61,7,52.66,10.18,46.79,12.62a74.42,74.42,0,0,0-31.63,26c-8.44,12.38-6.31,28-3.49,41.8,6.65,32.49,18,63.9,32.19,93.82,7,14.81,14.68,29.58,23.73,43.28,7.9,12,17.89,22.33,31.1,28.28,10.14,4.56,21.41,5.78,32.38,4.51s23.48-4.38,32.21-11.4c6.9-5.56,9.2-17.23,8.16-25.49-1.42-11.19-7.56-21.42-15.65-29.07C153.26,182,149.43,185.78,152,188.18Z"/><path d="M162.45,151.23a140.64,140.64,0,0,0-3.5,25c-.11,2.26,3.1,3.71,4.61,1.91l8.36-9.91,4.18-5c2-2.36,5.17-.87,7.43-.35,8.12,1.87,16.38,3,24.7,2,13.28-1.56,28-10.26,37-20,9.66-10.5,12.71-27.81,14.72-41.38a52.52,52.52,0,0,0-.52-20.26c-1.71-7-6.2-13.67-10.41-19.42-3.76-5.14-8.94-7.79-14.66-10.28a178.77,178.77,0,0,0-23-8.18,67.59,67.59,0,0,0-39.09.4c-24,7.59-46.15,31.28-44,57.67,1.64,20.64,15.41,39.4,33.43,48.94,3.08,1.63,5.81-3,2.73-4.67a59,59,0,0,1-27.89-31.91c-5.83-15.78-2.24-31.42,7.94-44.48,8.42-10.79,20.63-18.18,33.77-21.64,15.23-4,30.28-.1,44.7,5.09,7.24,2.61,15.53,5.24,20.85,11.07,5.67,6.2,10.35,15.4,11.39,23.69,1,8-.85,16.49-2.6,24.3-1.81,8.1-4.23,16.41-8.47,23.6-4,6.8-11.08,11.09-17.72,14.95-8.21,4.79-16.53,7.67-26.11,7.53A71.79,71.79,0,0,1,187,158.16c-3.38-.69-6.69-1.95-10.16-1.63-2.62.24-4.37,2.77-5.91,4.59l-9.75,11.56-1.39,1.65,4.61,1.91a133.1,133.1,0,0,1,3.31-23.58c.79-3.39-4.42-4.83-5.21-1.43Z"/><path d="M197.42,93.23c-4.47-.41-7.83,5.26-8.57,9-1,5.18,3.32,8.08,7.88,8.77,9.75,1.47,12.5-14.59,4-17.79-3.26-1.23-4.66,4-1.43,5.21,1.12.43,1,2.81,1,3.71,0,1.8-.89,3.85-3,3.54-1.59-.24-3.53-.77-3.16-2.71.22-1.13,1.86-4.5,3.22-4.37,3.47.32,3.44-5.09,0-5.41Z"/><path d="M44.67,19.33c5.72.72,9.63,6.85,12.59,11.16A62.74,62.74,0,0,1,65,46.59c1.08,3.3,6.3,1.89,5.21-1.43-3.78-11.51-11.86-29.5-25.54-31.24-3.45-.44-3.41,5,0,5.41Z"/><path d="M125.49,184.56c14.92,4.82,19.85,20.75,22.91,34.54.76,3.4,6,2,5.21-1.44-3.52-15.86-9.78-32.85-26.68-38.31-3.33-1.08-4.74,4.14-1.44,5.21Z"/><path d="M165.84,63.66c11.66-9.93,27.55-8.26,41.5-5.37,13.6,2.81,26.85,9,34.74,20.83.95,1.45,3.3.1,2.33-1.36-8.38-12.6-22-18.85-36.35-22.08-14.89-3.35-31.8-4.44-44.13,6.07-1.33,1.13.59,3,1.91,1.91Z"/><path d="M244.27,85.51c2.41,4.91,1.56,12,.7,17.26-.28,1.7,2.32,2.43,2.61.72,1-6,1.83-13.64-1-19.34-.77-1.57-3.1-.2-2.34,1.36Z"/><path d="M244.38,108.13c-3.69,25.05-23.83,46.78-50.66,43.4-1.72-.22-1.7,2.49,0,2.7,27.9,3.52,49.42-19.25,53.27-45.38.25-1.71-2.36-2.44-2.61-.72Z"/><path d="M158.28,66.67a49.89,49.89,0,0,0-18.59,40.73c.28,7.8,5.42,13.35,10.14,19,5.5,6.62,11.59,12.7,19.41,16.48,1.56.75,2.94-1.58,1.37-2.34-6.09-2.93-11-7.25-15.52-12.18-5.53-6-11.85-12.54-12.7-21-1.47-14.78,6.56-29.75,17.8-38.82,1.35-1.1-.57-3-1.91-1.91Z"/><path d="M227.63,93a40.25,40.25,0,0,1,.17,17.51c-.36,1.7,2.25,2.42,2.6.72a43.58,43.58,0,0,0-.16-19c-.39-1.7-3-1-2.61.72Z"/><path d="M163.94,91.45c-2,9.61-3.12,19.74,3.19,28,1,1.36,3.39,0,2.33-1.37-5.89-7.72-4.78-17-2.91-25.92.35-1.7-2.25-2.42-2.61-.72Z"/><path d="M153.33,103.69a14.4,14.4,0,0,0,3.47,12.79c1.17,1.29,3.07-.63,1.91-1.92a11.5,11.5,0,0,1-2.78-10.15c.35-1.7-2.25-2.43-2.6-.72Z"/><path d="M15.24,92.72a26.3,26.3,0,0,0,7.75,5c1.59.67,3-1.65,1.36-2.33a24.32,24.32,0,0,1-7.2-4.63c-1.28-1.18-3.19.72-1.91,1.91Z"/><path d="M18.35,100.63A28.52,28.52,0,0,0,33,106.18c1.73.16,1.72-2.54,0-2.7A26.09,26.09,0,0,1,19.71,98.3c-1.4-1-2.74,1.3-1.36,2.33Z"/><path d="M20.58,108.64c7,3.76,16.65,7.92,24.65,5.72a1.35,1.35,0,0,0-.72-2.61c-7.15,2-16.39-2.11-22.56-5.45-1.53-.83-2.9,1.51-1.37,2.34Z"/><path d="M24,116.81a41.27,41.27,0,0,0,25.75,5.47c1.71-.19,1.73-2.89,0-2.7a38.89,38.89,0,0,1-24.39-5.1A1.35,1.35,0,0,0,24,116.81Z"/><path d="M27,126.64c8.2,3,16.37,5.56,25.13,3.8,1.71-.34,1-3-.72-2.61-8.22,1.65-16-1-23.69-3.8-1.65-.59-2.35,2-.72,2.61Z"/><path d="M32.15,137.14c7.31,2.65,14.91,4.56,22.44,1.66,1.61-.62.92-3.24-.71-2.61-7.1,2.73-14.15.83-21-1.66-1.65-.59-2.35,2-.72,2.61Z"/><path d="M34.69,145.09a47.2,47.2,0,0,0,12.14,2c1.74.06,1.74-2.65,0-2.7a44.39,44.39,0,0,1-11.43-1.91c-1.67-.5-2.38,2.11-.71,2.61Z"/><path d="M109.35,247.05a17.77,17.77,0,0,0,11.92-5c1.27-1.2-.65-3.11-1.91-1.91a15,15,0,0,1-10,4.17c-1.74.05-1.75,2.75,0,2.7Z"/><path d="M119,248.85c5.54-3,10.92-6.37,13.23-12.51.61-1.64-2-2.33-2.61-.72-2,5.4-7.17,8.3-12,10.89-1.54.83-.17,3.17,1.36,2.34Z"/><path d="M129.18,248.4c5.07-4,10.11-8.32,11.49-14.92.35-1.7-2.26-2.43-2.61-.72-1.28,6.14-6.1,10-10.79,13.73-1.37,1.08.56,3,1.91,1.91Z"/><path d="M136.16,247.06a24,24,0,0,0,11.16-16.49c.29-1.7-2.32-2.43-2.61-.71a21.42,21.42,0,0,1-9.91,14.87c-1.48.91-.12,3.25,1.36,2.33Z"/><path d="M144.29,244.88c6.88-2,10.4-11.22,10.76-17.64.09-1.74-2.61-1.73-2.71,0-.28,5.14-3.12,13.42-8.77,15a1.35,1.35,0,0,0,.72,2.61Z"/><path d="M157.62,238.73a46.55,46.55,0,0,0,4.58-28.87c-.27-1.72-2.88-1-2.61.72a43.34,43.34,0,0,1-4.31,26.78c-.79,1.55,1.54,2.92,2.34,1.37Z"/><path d="M68.83,71.79a26.13,26.13,0,0,0,1-12.26c-.27-1.72-2.87-1-2.61.72a23.23,23.23,0,0,1-1,10.82c-.55,1.66,2.06,2.37,2.6.72Z"/><path d="M73.15,68.24C74.41,62.63,75.48,57,74,51.37a1.35,1.35,0,0,0-2.6.72c1.39,5.19.34,10.3-.82,15.43-.38,1.69,2.23,2.42,2.61.72Z"/><path d="M77.68,66.2c2.32-6.33,4.48-14,2.28-20.6-.55-1.65-3.16-.94-2.61.71,2.06,6.19-.11,13.27-2.28,19.17-.6,1.64,2,2.34,2.61.72Z"/><path d="M84.71,63.53c1-7,3.33-14.05.71-21-.61-1.62-3.23-.92-2.61.71,2.45,6.48.21,13-.71,19.56-.23,1.7,2.37,2.44,2.61.72Z"/><path d="M76.2,163.1a108.56,108.56,0,0,0,19,29c9,9.91,20.7,21.05,16.77,35.83a1.35,1.35,0,0,0,2.61.72c3.26-12.28-3.54-23-11.38-31.87-9.74-11-18.61-21.42-24.63-35-.71-1.59-3-.22-2.34,1.36Z"/><path d="M108.83,235.32a9.79,9.79,0,0,1-11.49,3.32c-1.64-.62-2.34,2-.72,2.6a12.48,12.48,0,0,0,14.54-4.56c1-1.42-1.32-2.76-2.33-1.36Z"/><path d="M17.25,45.49c2.75-7.3,11.91-10,18.7-7.9,6.58,2,10.38,8.89,12.26,15,.52,1.66,3.13,1,2.61-.71-2.67-8.63-8.15-15.81-17.35-17.69-7.28-1.48-16.23,3.71-18.82,10.6-.62,1.63,2,2.33,2.6.72Z"/><path d="M66.82,93.19a16.12,16.12,0,0,1-6,6,1.36,1.36,0,0,0,1.37,2.34,18.93,18.93,0,0,0,6.93-7,1.35,1.35,0,0,0-2.33-1.36Z"/><path d="M68.11,100.73c-1.1,3.22-4,5.23-6.87,6.77-1.53.83-.17,3.17,1.37,2.34,3.53-1.91,6.77-4.47,8.11-8.39.56-1.65-2-2.36-2.61-.72Z"/><path d="M69.54,107.82a39.62,39.62,0,0,1-7.29,6.94c-1.39,1,0,3.36,1.37,2.33a42,42,0,0,0,7.83-7.36c1.1-1.33-.8-3.26-1.91-1.91Z"/><path d="M71,115c-1,4.89-4.88,8-8.63,11-1.37,1.07.55,3,1.91,1.91,4.13-3.23,8.18-6.8,9.32-12.15.36-1.7-2.24-2.42-2.6-.72Z"/><path d="M74.86,125.9c-1.43,2.82-4.21,4.34-6.9,5.79-1.53.83-.17,3.17,1.37,2.34,3.08-1.67,6.22-3.54,7.87-6.77.78-1.55-1.55-2.92-2.34-1.36Z"/><path d="M51.37,183.24a11.45,11.45,0,0,0,7,.13,1.35,1.35,0,0,0-.71-2.61,8.9,8.9,0,0,1-5.52-.12c-1.66-.56-2.36,2.05-.72,2.6Z"/><path d="M53.54,187.84a22.41,22.41,0,0,0,15.3.26c1.64-.55.94-3.16-.72-2.61a20,20,0,0,1-13.86-.26c-1.64-.61-2.33,2-.72,2.61Z"/><path d="M57.54,194.34a28.69,28.69,0,0,0,19.41,0c1.63-.58.93-3.19-.72-2.61a26.24,26.24,0,0,1-18,0c-1.65-.58-2.35,2-.72,2.61Z"/><path d="M61.85,203a24.06,24.06,0,0,0,19.27-2.53,1.35,1.35,0,0,0-1.37-2.33,21.29,21.29,0,0,1-17.18,2.25,1.35,1.35,0,0,0-.72,2.61Z"/><path d="M65.92,209.9c7,1.77,13.53-.52,20-3.2,1.58-.65.89-3.27-.72-2.6-6,2.46-12,4.84-18.58,3.19a1.35,1.35,0,0,0-.72,2.61Z"/><path d="M70.27,216.88c8.48,3,15.65.15,22.79-4.57,1.44-1,.09-3.3-1.37-2.34-6.52,4.32-12.86,7.06-20.7,4.3-1.65-.58-2.35,2-.72,2.61Z"/><path d="M75.94,224.12a30,30,0,0,0,26.47-4.73c1.39-1,0-3.37-1.36-2.34a27.49,27.49,0,0,1-24.39,4.47,1.35,1.35,0,0,0-.72,2.6Z"/><path d="M83.39,232.8c5.53,1.36,9.8,1.39,15.06-.9,1.6-.69.22-3-1.36-2.33-4.51,2-8.26,1.78-13,.62-1.69-.42-2.41,2.19-.72,2.61Z"/><path d="M165.91,210.94c5.79,7.88,19.55,14.1,26.54,3.63,2.87-4.29,3-9.29-.56-13.2-3-3.27-9.6-2.54-11.48,1.59-5.12,11.26,6.4,20.14,17,17,5.35-1.58,8.7-6.36,10.63-11.28,1.56-4,2.2-11.54-3.13-13-4.25-1.17-7.55,2.34-8.09,6.19-.81,5.78,5,10.58,9.67,12.65,9.54,4.25,22.71-2.23,23.71-13.08.47-5-1.36-9.06-5.71-11.72-3.77-2.31-10.33-2.16-12.17,2.55-4.71,12,14.15,17.63,22.5,14.05,5.3-2.27,7-9.27,7.38-14.33.36-4.31-.54-8.72-.59-13a14.33,14.33,0,0,1,1.42-6.52c.73-1.57,7-8,8.25-2.71.82,3.39,6,2,5.21-1.43-1-4.06-4.48-5.8-8.45-5.69-4.31.13-7.64,3.69-9.68,7.1-5.36,9,5.21,37.84-14.42,31.84a21.07,21.07,0,0,1-4.1-2.08c-6.69-4,.81-6.3,3.68-3.81,3.54,3.07.43,8.83-1.95,11.36s-5.69,3.39-8.93,3.45a12.42,12.42,0,0,1-6.34-2.11l-2-1.65q-4.18-3.15-.63-3.64c.1,9-12.08,17.64-18.32,8.44-.28-.69-.55-1.38-.82-2.06q6.3-.12,2.69,2.88c-1.47,1.61-3.89,2.17-5.95,2.33-4.4.33-8.33-3.19-10.73-6.46-2-2.77-6.73-.08-4.67,2.73Z"/></g></g></svg>