<svg width="189" height="100" viewBox="0 0 189 100" fill="none" xmlns="http://www.w3.org/2000/svg">
<path d="M8.98727 79.8658V81.671C8.98727 81.9108 8.96371 82.1036 8.9166 82.2492C8.86949 82.3905 8.7817 82.519 8.65321 82.6346C8.52902 82.7502 8.36841 82.8616 8.17141 82.9687C7.60181 83.277 7.05362 83.5019 6.52685 83.6432C6.00008 83.7845 5.42619 83.8552 4.8052 83.8552C4.08142 83.8552 3.42189 83.7438 2.82659 83.5211C2.23129 83.2984 1.72379 82.9751 1.30409 82.5511C0.88438 82.1271 0.561035 81.6132 0.334051 81.0093C0.11135 80.4055 0 79.7309 0 78.9857C0 78.2534 0.109209 77.5832 0.327627 76.975C0.546045 76.3669 0.867249 75.8508 1.29124 75.4268C1.71523 75.0028 2.23129 74.6795 2.83944 74.4568C3.44758 74.2298 4.1371 74.1163 4.90799 74.1163C5.54183 74.1163 6.10286 74.202 6.59109 74.3733C7.07932 74.5403 7.47547 74.7523 7.77954 75.0092C8.08361 75.2662 8.31274 75.5382 8.46692 75.8251C8.62109 76.112 8.69818 76.3669 8.69818 76.5896C8.69818 76.8294 8.60825 77.035 8.42837 77.2063C8.25278 77.3733 8.04079 77.4568 7.79239 77.4568C7.65534 77.4568 7.52258 77.4247 7.3941 77.3605C7.2699 77.2962 7.16497 77.2063 7.07932 77.0906C6.84377 76.7223 6.64462 76.444 6.48188 76.2555C6.31914 76.0671 6.09858 75.9086 5.8202 75.7801C5.54611 75.6517 5.19493 75.5874 4.76666 75.5874C4.32554 75.5874 3.93153 75.6645 3.58463 75.8187C3.23773 75.9686 2.94008 76.1891 2.69168 76.4804C2.44757 76.7673 2.25913 77.1206 2.12637 77.5403C1.99788 77.96 1.93364 78.4247 1.93364 78.9344C1.93364 80.0393 2.18632 80.8894 2.69168 81.4847C3.20133 82.08 3.91011 82.3777 4.81805 82.3777C5.25917 82.3777 5.67245 82.3198 6.05789 82.2042C6.44762 82.0886 6.84163 81.9237 7.23992 81.7095V80.1806H5.76239C5.40692 80.1806 5.13711 80.1271 4.95295 80.02C4.77308 79.913 4.68314 79.7309 4.68314 79.474C4.68314 79.2641 4.75809 79.0907 4.90799 78.9536C5.06216 78.8166 5.26987 78.7481 5.53112 78.7481H7.69603C7.96156 78.7481 8.1864 78.7716 8.37056 78.8187C8.55471 78.8658 8.70247 78.9708 8.81382 79.1335C8.92945 79.2962 8.98727 79.5404 8.98727 79.8658Z" fill="#009052"/>
<path d="M12.6747 75.2726V82.1271H16.542C16.8503 82.1271 17.0859 82.2021 17.2486 82.352C17.4156 82.5018 17.4992 82.6903 17.4992 82.9173C17.4992 83.1485 17.4178 83.337 17.255 83.4826C17.0923 83.6239 16.8546 83.6946 16.542 83.6946H11.9359C11.5205 83.6946 11.2207 83.6025 11.0365 83.4183C10.8567 83.2342 10.7667 82.9365 10.7667 82.5254V75.2726C10.7667 74.8872 10.8524 74.5981 11.0237 74.4054C11.1993 74.2127 11.4284 74.1163 11.7111 74.1163C11.998 74.1163 12.2293 74.2127 12.4049 74.4054C12.5847 74.5938 12.6747 74.8829 12.6747 75.2726Z" fill="#009052"/>
<path d="M22.2465 74.1163C23.223 74.1163 24.0603 74.3154 24.7583 74.7137C25.4607 75.1077 25.9918 75.6709 26.3515 76.4033C26.7113 77.1313 26.8911 77.9879 26.8911 78.9729C26.8911 79.701 26.7926 80.3626 26.5956 80.9579C26.3986 81.5532 26.1031 82.0693 25.7091 82.5061C25.3151 82.943 24.8312 83.277 24.2573 83.5083C23.6834 83.7396 23.026 83.8552 22.2851 83.8552C21.5485 83.8552 20.8889 83.7374 20.3065 83.5019C19.724 83.262 19.2379 82.9258 18.8482 82.4933C18.4585 82.0607 18.163 81.5404 17.9617 80.9322C17.7647 80.3241 17.6662 79.6667 17.6662 78.96C17.6662 78.2363 17.769 77.5724 17.9745 76.9686C18.1844 76.3647 18.4863 75.8508 18.8803 75.4268C19.2743 75.0028 19.754 74.6795 20.3193 74.4568C20.8846 74.2298 21.527 74.1163 22.2465 74.1163ZM24.9575 78.96C24.9575 78.2705 24.8461 77.6731 24.6234 77.1677C24.4007 76.6624 24.0817 76.2812 23.6663 76.0242C23.2551 75.763 22.7819 75.6324 22.2465 75.6324C21.8654 75.6324 21.5121 75.7052 21.1866 75.8508C20.8654 75.9921 20.587 76.1998 20.3514 76.4739C20.1202 76.748 19.936 77.0992 19.799 77.5275C19.6662 77.9515 19.5998 78.429 19.5998 78.96C19.5998 79.4954 19.6662 79.9793 19.799 80.4119C19.936 80.8444 20.1266 81.2042 20.3707 81.4911C20.6191 81.7738 20.9018 81.9858 21.2187 82.1271C21.5399 82.2684 21.8911 82.3391 22.2722 82.3391C22.7605 82.3391 23.208 82.217 23.6149 81.9729C24.026 81.7288 24.3515 81.3519 24.5913 80.8423C24.8354 80.3327 24.9575 79.7052 24.9575 78.96Z" fill="#009052"/>
<path d="M32.5443 83.6946H29.6663C29.2509 83.6946 28.9533 83.6025 28.7734 83.4183C28.5978 83.2299 28.51 82.9323 28.51 82.5254V75.4461C28.51 75.0307 28.5999 74.733 28.7798 74.5531C28.964 74.369 29.2595 74.2769 29.6663 74.2769H32.7178C33.1674 74.2769 33.5572 74.3047 33.8869 74.3604C34.2167 74.4161 34.5122 74.5232 34.7735 74.6816C34.9962 74.8144 35.1932 74.9836 35.3645 75.1891C35.5358 75.3904 35.6664 75.6153 35.7563 75.8636C35.8463 76.1078 35.8912 76.3669 35.8912 76.641C35.8912 77.5832 35.4202 78.2727 34.478 78.7095C35.7157 79.1035 36.3345 79.8701 36.3345 81.0093C36.3345 81.5361 36.1996 82.0115 35.9298 82.4355C35.66 82.8552 35.296 83.1657 34.8377 83.367C34.5508 83.4869 34.221 83.5725 33.8484 83.6239C33.4758 83.671 33.0411 83.6946 32.5443 83.6946ZM32.403 79.5125H30.4179V82.262H32.4672C33.7563 82.262 34.4009 81.7973 34.4009 80.868C34.4009 80.3926 34.2338 80.0479 33.8998 79.8337C33.5657 79.6196 33.0668 79.5125 32.403 79.5125ZM30.4179 75.7095V78.1442H32.1653C32.6407 78.1442 33.0068 78.0992 33.2638 78.0093C33.5251 77.9193 33.7242 77.748 33.8612 77.4954C33.9683 77.3155 34.0218 77.1142 34.0218 76.8915C34.0218 76.4161 33.8527 76.1013 33.5143 75.9472C33.176 75.7887 32.6599 75.7095 31.9661 75.7095H30.4179Z" fill="#009052"/>
<path d="M43.5166 82.6282L43.0669 81.4462H39.2382L38.7885 82.6539C38.6129 83.125 38.463 83.444 38.3388 83.6111C38.2146 83.7738 38.0112 83.8552 37.7285 83.8552C37.4887 83.8552 37.2767 83.7674 37.0925 83.5918C36.9084 83.4162 36.8163 83.2171 36.8163 82.9944C36.8163 82.8659 36.8377 82.7331 36.8806 82.5961C36.9234 82.459 36.994 82.2684 37.0925 82.0243L39.5016 75.9086C39.5701 75.733 39.6515 75.5232 39.7457 75.2791C39.8442 75.0307 39.947 74.8251 40.054 74.6623C40.1654 74.4996 40.3089 74.369 40.4845 74.2705C40.6643 74.1677 40.8849 74.1163 41.1461 74.1163C41.4117 74.1163 41.6322 74.1677 41.8078 74.2705C41.9877 74.369 42.1312 74.4975 42.2382 74.6559C42.3496 74.8144 42.4417 74.9857 42.5145 75.1698C42.5915 75.3497 42.6879 75.5917 42.8035 75.8958L45.264 81.9729C45.4567 82.4355 45.553 82.7717 45.553 82.9815C45.553 83.1999 45.461 83.4012 45.2768 83.5854C45.0969 83.7652 44.8785 83.8552 44.6216 83.8552C44.4717 83.8552 44.3432 83.8273 44.2361 83.7717C44.129 83.7203 44.0391 83.6496 43.9663 83.5597C43.8935 83.4655 43.8143 83.3241 43.7286 83.1357C43.6472 82.943 43.5766 82.7738 43.5166 82.6282ZM39.7393 80.0136H42.553L41.1333 76.127L39.7393 80.0136Z" fill="#009052"/>
<path d="M48.8293 75.2726V82.1271H52.6966C53.005 82.1271 53.2405 82.2021 53.4032 82.352C53.5703 82.5018 53.6538 82.6903 53.6538 82.9173C53.6538 83.1485 53.5724 83.337 53.4097 83.4826C53.2469 83.6239 53.0092 83.6946 52.6966 83.6946H48.0905C47.6751 83.6946 47.3753 83.6025 47.1912 83.4183C47.0113 83.2342 46.9214 82.9365 46.9214 82.5254V75.2726C46.9214 74.8872 47.007 74.5981 47.1783 74.4054C47.3539 74.2127 47.583 74.1163 47.8657 74.1163C48.1526 74.1163 48.3839 74.2127 48.5595 74.4054C48.7394 74.5938 48.8293 74.8829 48.8293 75.2726Z" fill="#009052"/>
<path d="M60.6881 75.2598L64.3563 80.8102V75.2084C64.3563 74.8444 64.4334 74.5724 64.5875 74.3925C64.746 74.2084 64.958 74.1163 65.2235 74.1163C65.4976 74.1163 65.7139 74.2084 65.8724 74.3925C66.0308 74.5724 66.11 74.8444 66.11 75.2084V82.6153C66.11 83.4419 65.7674 83.8552 65.0822 83.8552C64.9109 83.8552 64.7567 83.8295 64.6197 83.7781C64.4826 83.731 64.3541 83.6539 64.2342 83.5468C64.1143 83.4398 64.003 83.3156 63.9002 83.1742C63.7974 83.0286 63.6946 82.8809 63.5918 82.731L60.0136 77.2448V82.7631C60.0136 83.1228 59.9301 83.3948 59.7631 83.5789C59.596 83.7631 59.3819 83.8552 59.1207 83.8552C58.8509 83.8552 58.6346 83.7631 58.4718 83.5789C58.3091 83.3905 58.2277 83.1186 58.2277 82.7631V75.4975C58.2277 75.1891 58.262 74.9471 58.3305 74.7716C58.4119 74.5788 58.5468 74.4225 58.7352 74.3026C58.9237 74.1784 59.1271 74.1163 59.3455 74.1163C59.5168 74.1163 59.6624 74.1441 59.7823 74.1998C59.9065 74.2555 60.0136 74.3304 60.1035 74.4247C60.1978 74.5189 60.292 74.6409 60.3862 74.7908C60.4847 74.9407 60.5854 75.097 60.6881 75.2598Z" fill="#009052"/>
<path d="M74.4035 75.748H70.1058V78.0607H74.063C74.3543 78.0607 74.5705 78.1271 74.7119 78.2598C74.8575 78.3883 74.9303 78.5596 74.9303 78.7737C74.9303 78.9879 74.8596 79.1635 74.7183 79.3005C74.577 79.4333 74.3585 79.4997 74.063 79.4997H70.1058V82.1785H74.5513C74.8511 82.1785 75.0759 82.2492 75.2258 82.3905C75.38 82.5275 75.4571 82.7117 75.4571 82.943C75.4571 83.1657 75.38 83.3477 75.2258 83.489C75.0759 83.6261 74.8511 83.6946 74.5513 83.6946H69.367C68.9516 83.6946 68.6518 83.6025 68.4677 83.4183C68.2878 83.2342 68.1979 82.9365 68.1979 82.5254V75.4461C68.1979 75.172 68.2386 74.9493 68.3199 74.778C68.4013 74.6024 68.5276 74.4761 68.6989 74.399C68.8745 74.3176 69.0972 74.2769 69.367 74.2769H74.4035C74.7076 74.2769 74.9324 74.3454 75.078 74.4825C75.2279 74.6152 75.3029 74.7908 75.3029 75.0092C75.3029 75.2319 75.2279 75.4118 75.078 75.5489C74.9324 75.6816 74.7076 75.748 74.4035 75.748Z" fill="#009052"/>
<path d="M83.6413 82.2106L82.1188 76.5639L80.577 82.2106C80.4571 82.6389 80.3608 82.9473 80.288 83.1357C80.2194 83.3198 80.0974 83.4869 79.9218 83.6368C79.7462 83.7824 79.5128 83.8552 79.2216 83.8552C78.986 83.8552 78.7912 83.8102 78.637 83.7203C78.4871 83.6346 78.365 83.5126 78.2708 83.3541C78.1766 83.1914 78.0995 83.0008 78.0395 82.7824C77.9796 82.5597 77.926 82.3541 77.8789 82.1657L76.3115 75.8251C76.2172 75.4568 76.1701 75.1763 76.1701 74.9836C76.1701 74.7394 76.2558 74.5339 76.4271 74.3668C76.5984 74.1998 76.8104 74.1163 77.0631 74.1163C77.41 74.1163 77.6434 74.2277 77.7633 74.4504C77.8832 74.6731 77.9881 74.9964 78.0781 75.4204L79.3115 80.9194L80.6927 75.7737C80.7955 75.3797 80.8875 75.0799 80.9689 74.8743C81.0503 74.6688 81.183 74.491 81.3672 74.3411C81.5514 74.1912 81.8019 74.1163 82.1188 74.1163C82.44 74.1163 82.6884 74.1955 82.864 74.354C83.0439 74.5082 83.1681 74.6773 83.2366 74.8615C83.3051 75.0457 83.3972 75.3497 83.5128 75.7737L84.9069 80.9194L86.1403 75.4204C86.2002 75.1334 86.2559 74.9086 86.3073 74.7459C86.363 74.5831 86.4551 74.4375 86.5835 74.309C86.7163 74.1805 86.9069 74.1163 87.1553 74.1163C87.4037 74.1163 87.6135 74.1998 87.7848 74.3668C87.9604 74.5296 88.0482 74.7352 88.0482 74.9836C88.0482 75.1591 88.0011 75.4397 87.9069 75.8251L86.3394 82.1657C86.2324 82.5939 86.1424 82.9087 86.0696 83.11C86.0011 83.307 85.8812 83.4804 85.7099 83.6303C85.5428 83.7802 85.3051 83.8552 84.9968 83.8552C84.7056 83.8552 84.4722 83.7824 84.2966 83.6368C84.121 83.4912 83.9989 83.3284 83.9304 83.1485C83.8619 82.9644 83.7655 82.6517 83.6413 82.2106Z" fill="#009052"/>
<path d="M94.5301 75.2726V77.9707H98.6479V75.2726C98.6479 74.8872 98.7336 74.5981 98.9049 74.4054C99.0805 74.2127 99.3096 74.1163 99.5923 74.1163C99.8792 74.1163 100.11 74.2127 100.286 74.4054C100.466 74.5938 100.556 74.8829 100.556 75.2726V82.6924C100.556 83.0822 100.466 83.3734 100.286 83.5661C100.106 83.7588 99.8749 83.8552 99.5923 83.8552C99.3053 83.8552 99.0762 83.7588 98.9049 83.5661C98.7336 83.3691 98.6479 83.0779 98.6479 82.6924V79.5254H94.5301V82.6924C94.5301 83.0822 94.4402 83.3734 94.2603 83.5661C94.0804 83.7588 93.8492 83.8552 93.5665 83.8552C93.2796 83.8552 93.0504 83.7588 92.8791 83.5661C92.7078 83.3691 92.6222 83.0779 92.6222 82.6924V75.2726C92.6222 74.8872 92.7057 74.5981 92.8727 74.4054C93.044 74.2127 93.2753 74.1163 93.5665 74.1163C93.8534 74.1163 94.0847 74.2127 94.2603 74.4054C94.4402 74.5938 94.5301 74.8829 94.5301 75.2726Z" fill="#009052"/>
<path d="M108.811 75.748H104.513V78.0607H108.47C108.762 78.0607 108.978 78.1271 109.119 78.2598C109.265 78.3883 109.338 78.5596 109.338 78.7737C109.338 78.9879 109.267 79.1635 109.126 79.3005C108.984 79.4333 108.766 79.4997 108.47 79.4997H104.513V82.1785H108.959C109.258 82.1785 109.483 82.2492 109.633 82.3905C109.787 82.5275 109.864 82.7117 109.864 82.943C109.864 83.1657 109.787 83.3477 109.633 83.489C109.483 83.6261 109.258 83.6946 108.959 83.6946H103.774C103.359 83.6946 103.059 83.6025 102.875 83.4183C102.695 83.2342 102.605 82.9365 102.605 82.5254V75.4461C102.605 75.172 102.646 74.9493 102.727 74.778C102.809 74.6024 102.935 74.4761 103.106 74.399C103.282 74.3176 103.505 74.2769 103.774 74.2769H108.811C109.115 74.2769 109.34 74.3454 109.485 74.4825C109.635 74.6152 109.71 74.7908 109.71 75.0092C109.71 75.2319 109.635 75.4118 109.485 75.5489C109.34 75.6816 109.115 75.748 108.811 75.748Z" fill="#009052"/>
<path d="M113.944 79.6667H113.276V82.6924C113.276 83.0907 113.188 83.3841 113.012 83.5725C112.837 83.761 112.607 83.8552 112.325 83.8552C112.021 83.8552 111.785 83.7567 111.618 83.5597C111.451 83.3627 111.368 83.0736 111.368 82.6924V75.4461C111.368 75.0349 111.46 74.7373 111.644 74.5531C111.828 74.369 112.126 74.2769 112.537 74.2769H115.64C116.068 74.2769 116.434 74.2962 116.738 74.3347C117.042 74.369 117.316 74.4418 117.56 74.5531C117.856 74.6773 118.117 74.8551 118.344 75.0863C118.571 75.3176 118.742 75.5874 118.858 75.8958C118.978 76.1998 119.038 76.5232 119.038 76.8658C119.038 77.5682 118.839 78.1292 118.44 78.5489C118.046 78.9686 117.447 79.2663 116.642 79.4419C116.98 79.6217 117.303 79.8873 117.612 80.2384C117.92 80.5896 118.194 80.9644 118.434 81.3626C118.678 81.7567 118.867 82.1143 118.999 82.4355C119.136 82.7524 119.205 82.9708 119.205 83.0907C119.205 83.2149 119.164 83.3391 119.083 83.4633C119.006 83.5832 118.899 83.6775 118.762 83.746C118.625 83.8188 118.466 83.8552 118.286 83.8552C118.072 83.8552 117.892 83.8038 117.747 83.701C117.601 83.6025 117.475 83.4762 117.368 83.322C117.265 83.1678 117.124 82.9408 116.944 82.641L116.179 81.3691C115.905 80.9023 115.659 80.5468 115.44 80.3027C115.226 80.0586 115.008 79.8915 114.785 79.8016C114.562 79.7117 114.282 79.6667 113.944 79.6667ZM115.036 75.7095H113.276V78.2984H114.984C115.443 78.2984 115.828 78.2598 116.141 78.1827C116.453 78.1014 116.691 77.9665 116.854 77.778C117.021 77.5853 117.104 77.3219 117.104 76.9879C117.104 76.7266 117.038 76.4975 116.905 76.3005C116.772 76.0992 116.588 75.9493 116.353 75.8508C116.13 75.7566 115.691 75.7095 115.036 75.7095Z" fill="#009052"/>
<path d="M124.871 83.6946H121.993C121.578 83.6946 121.28 83.6025 121.1 83.4183C120.924 83.2299 120.837 82.9323 120.837 82.5254V75.4461C120.837 75.0307 120.927 74.733 121.106 74.5531C121.291 74.369 121.586 74.2769 121.993 74.2769H125.044C125.494 74.2769 125.884 74.3047 126.214 74.3604C126.543 74.4161 126.839 74.5232 127.1 74.6816C127.323 74.8144 127.52 74.9836 127.691 75.1891C127.862 75.3904 127.993 75.6153 128.083 75.8636C128.173 76.1078 128.218 76.3669 128.218 76.641C128.218 77.5832 127.747 78.2727 126.805 78.7095C128.042 79.1035 128.661 79.8701 128.661 81.0093C128.661 81.5361 128.526 82.0115 128.256 82.4355C127.987 82.8552 127.623 83.1657 127.164 83.367C126.877 83.4869 126.548 83.5725 126.175 83.6239C125.802 83.671 125.368 83.6946 124.871 83.6946ZM124.73 79.5125H122.745V82.262H124.794C126.083 82.262 126.728 81.7973 126.728 80.868C126.728 80.3926 126.56 80.0479 126.226 79.8337C125.892 79.6196 125.393 79.5125 124.73 79.5125ZM122.745 75.7095V78.1442H124.492C124.967 78.1442 125.333 78.0992 125.59 78.0093C125.852 77.9193 126.051 77.748 126.188 77.4954C126.295 77.3155 126.348 77.1142 126.348 76.8915C126.348 76.4161 126.179 76.1013 125.841 75.9472C125.503 75.7887 124.987 75.7095 124.293 75.7095H122.745Z" fill="#009052"/>
<path d="M135.843 82.6282L135.394 81.4462H131.565L131.115 82.6539C130.94 83.125 130.79 83.444 130.665 83.6111C130.541 83.7738 130.338 83.8552 130.055 83.8552C129.815 83.8552 129.603 83.7674 129.419 83.5918C129.235 83.4162 129.143 83.2171 129.143 82.9944C129.143 82.8659 129.164 82.7331 129.207 82.5961C129.25 82.459 129.321 82.2684 129.419 82.0243L131.828 75.9086C131.897 75.733 131.978 75.5232 132.072 75.2791C132.171 75.0307 132.274 74.8251 132.381 74.6623C132.492 74.4996 132.636 74.369 132.811 74.2705C132.991 74.1677 133.212 74.1163 133.473 74.1163C133.738 74.1163 133.959 74.1677 134.134 74.2705C134.314 74.369 134.458 74.4975 134.565 74.6559C134.676 74.8144 134.768 74.9857 134.841 75.1698C134.918 75.3497 135.015 75.5917 135.13 75.8958L137.591 81.9729C137.783 82.4355 137.88 82.7717 137.88 82.9815C137.88 83.1999 137.788 83.4012 137.603 83.5854C137.424 83.7652 137.205 83.8552 136.948 83.8552C136.798 83.8552 136.67 83.8273 136.563 83.7717C136.456 83.7203 136.366 83.6496 136.293 83.5597C136.22 83.4655 136.141 83.3241 136.055 83.1357C135.974 82.943 135.903 82.7738 135.843 82.6282ZM132.066 80.0136H134.88L133.46 76.127L132.066 80.0136Z" fill="#009052"/>
<path d="M141.156 75.2726V82.1271H145.023C145.332 82.1271 145.567 82.2021 145.73 82.352C145.897 82.5018 145.98 82.6903 145.98 82.9173C145.98 83.1485 145.899 83.337 145.736 83.4826C145.574 83.6239 145.336 83.6946 145.023 83.6946H140.417C140.002 83.6946 139.702 83.6025 139.518 83.4183C139.338 83.2342 139.248 82.9365 139.248 82.5254V75.2726C139.248 74.8872 139.334 74.5981 139.505 74.4054C139.681 74.2127 139.91 74.1163 140.192 74.1163C140.479 74.1163 140.711 74.2127 140.886 74.4054C141.066 74.5938 141.156 74.8829 141.156 75.2726Z" fill="#009052"/>
<path d="M152.398 75.2726V82.1271H156.265C156.574 82.1271 156.809 82.2021 156.972 82.352C157.139 82.5018 157.223 82.6903 157.223 82.9173C157.223 83.1485 157.141 83.337 156.978 83.4826C156.816 83.6239 156.578 83.6946 156.265 83.6946H151.659C151.244 83.6946 150.944 83.6025 150.76 83.4183C150.58 83.2342 150.49 82.9365 150.49 82.5254V75.2726C150.49 74.8872 150.576 74.5981 150.747 74.4054C150.923 74.2127 151.152 74.1163 151.434 74.1163C151.721 74.1163 151.953 74.2127 152.128 74.4054C152.308 74.5938 152.398 74.8829 152.398 75.2726Z" fill="#009052"/>
<path d="M158.559 82.6924V75.2726C158.559 74.8872 158.647 74.5981 158.822 74.4054C158.998 74.2127 159.225 74.1163 159.503 74.1163C159.79 74.1163 160.021 74.2127 160.197 74.4054C160.377 74.5938 160.467 74.8829 160.467 75.2726V82.6924C160.467 83.0822 160.377 83.3734 160.197 83.5661C160.021 83.7588 159.79 83.8552 159.503 83.8552C159.229 83.8552 159.002 83.7588 158.822 83.5661C158.647 83.3691 158.559 83.0779 158.559 82.6924Z" fill="#009052"/>
<path d="M168.233 75.748H164.475V78.157H167.617C167.908 78.157 168.124 78.2234 168.266 78.3562C168.411 78.4847 168.484 78.6581 168.484 78.8765C168.484 79.095 168.411 79.2684 168.266 79.3969C168.12 79.5254 167.904 79.5896 167.617 79.5896H164.475V82.6924C164.475 83.0864 164.385 83.3798 164.206 83.5725C164.03 83.761 163.803 83.8552 163.525 83.8552C163.242 83.8552 163.011 83.7588 162.831 83.5661C162.655 83.3734 162.567 83.0822 162.567 82.6924V75.4461C162.567 75.172 162.608 74.9493 162.689 74.778C162.771 74.6024 162.897 74.4761 163.068 74.399C163.244 74.3176 163.467 74.2769 163.737 74.2769H168.233C168.537 74.2769 168.762 74.3454 168.908 74.4825C169.058 74.6152 169.133 74.7908 169.133 75.0092C169.133 75.2319 169.058 75.4118 168.908 75.5489C168.762 75.6816 168.537 75.748 168.233 75.748Z" fill="#009052"/>
<path d="M176.765 75.748H172.467V78.0607H176.424C176.715 78.0607 176.932 78.1271 177.073 78.2598C177.219 78.3883 177.291 78.5596 177.291 78.7737C177.291 78.9879 177.221 79.1635 177.079 79.3005C176.938 79.4333 176.72 79.4997 176.424 79.4997H172.467V82.1785H176.912C177.212 82.1785 177.437 82.2492 177.587 82.3905C177.741 82.5275 177.818 82.7117 177.818 82.943C177.818 83.1657 177.741 83.3477 177.587 83.489C177.437 83.6261 177.212 83.6946 176.912 83.6946H171.728C171.313 83.6946 171.013 83.6025 170.829 83.4183C170.649 83.2342 170.559 82.9365 170.559 82.5254V75.4461C170.559 75.172 170.6 74.9493 170.681 74.778C170.762 74.6024 170.889 74.4761 171.06 74.399C171.236 74.3176 171.458 74.2769 171.728 74.2769H176.765C177.069 74.2769 177.293 74.3454 177.439 74.4825C177.589 74.6152 177.664 74.7908 177.664 75.0092C177.664 75.2319 177.589 75.4118 177.439 75.5489C177.293 75.6816 177.069 75.748 176.765 75.748Z" fill="#009052"/>
<path d="M46.2807 97.9658L45.094 93.5645L43.8923 97.9658C43.7988 98.2996 43.7237 98.54 43.6669 98.6869C43.6135 98.8304 43.5184 98.9606 43.3815 99.0774C43.2447 99.1909 43.0627 99.2477 42.8357 99.2477C42.6521 99.2477 42.5003 99.2126 42.3801 99.1425C42.2632 99.0758 42.1681 98.9806 42.0947 98.8571C42.0212 98.7303 41.9611 98.5817 41.9144 98.4115C41.8677 98.2379 41.826 98.0777 41.7892 97.9308L40.5675 92.9887C40.494 92.7016 40.4573 92.4829 40.4573 92.3327C40.4573 92.1425 40.5241 91.9822 40.6576 91.852C40.7911 91.7218 40.9564 91.6568 41.1533 91.6568C41.4237 91.6568 41.6056 91.7435 41.6991 91.9171C41.7926 92.0907 41.8744 92.3427 41.9445 92.6732L42.9058 96.9594L43.9824 92.9486C44.0625 92.6415 44.1343 92.4078 44.1977 92.2476C44.2611 92.0874 44.3646 91.9488 44.5081 91.832C44.6517 91.7152 44.847 91.6568 45.094 91.6568C45.3444 91.6568 45.538 91.7185 45.6748 91.842C45.815 91.9622 45.9118 92.094 45.9652 92.2376C46.0187 92.3811 46.0904 92.6181 46.1806 92.9486L47.2671 96.9594L48.2285 92.6732C48.2752 92.4496 48.3186 92.2743 48.3587 92.1475C48.4021 92.0206 48.4739 91.9071 48.574 91.807C48.6775 91.7068 48.826 91.6568 49.0196 91.6568C49.2133 91.6568 49.3768 91.7218 49.5104 91.852C49.6472 91.9789 49.7156 92.1391 49.7156 92.3327C49.7156 92.4696 49.6789 92.6882 49.6055 92.9887L48.3837 97.9308C48.3003 98.2646 48.2302 98.51 48.1734 98.6668C48.12 98.8204 48.0265 98.9556 47.893 99.0724C47.7628 99.1893 47.5776 99.2477 47.3372 99.2477C47.1102 99.2477 46.9283 99.1909 46.7914 99.0774C46.6546 98.9639 46.5594 98.8371 46.506 98.6969C46.4526 98.5533 46.3775 98.3097 46.2807 97.9658Z" fill="#009052"/>
<path d="M54.1671 96.8042H51.4932C51.4965 97.1146 51.5583 97.3883 51.6785 97.6253C51.802 97.8624 51.9639 98.0409 52.1642 98.1611C52.3678 98.2813 52.5915 98.3414 52.8351 98.3414C52.9987 98.3414 53.1473 98.323 53.2808 98.2863C53.4176 98.2462 53.5495 98.1862 53.6763 98.106C53.8032 98.0226 53.92 97.9341 54.0269 97.8407C54.1337 97.7472 54.2722 97.6203 54.4425 97.4601C54.5126 97.4 54.6127 97.37 54.7429 97.37C54.8831 97.37 54.9966 97.4084 55.0834 97.4851C55.1702 97.5619 55.2136 97.6704 55.2136 97.8106C55.2136 97.9341 55.1652 98.0793 55.0684 98.2462C54.9715 98.4098 54.8247 98.5684 54.6277 98.7219C54.4341 98.8721 54.1888 98.9973 53.8917 99.0975C53.5979 99.1976 53.2591 99.2477 52.8752 99.2477C51.9973 99.2477 51.3146 98.9973 50.8272 98.4966C50.3399 97.9959 50.0962 97.3166 50.0962 96.4587C50.0962 96.0548 50.1563 95.6809 50.2765 95.3371C50.3966 94.9899 50.5719 94.6928 50.8022 94.4458C51.0325 94.1987 51.3163 94.0101 51.6534 93.88C51.9906 93.7464 52.3645 93.6797 52.7751 93.6797C53.3092 93.6797 53.7665 93.7932 54.147 94.0202C54.5309 94.2438 54.818 94.5342 55.0083 94.8914C55.1985 95.2486 55.2937 95.6124 55.2937 95.983C55.2937 96.3268 55.1952 96.5505 54.9983 96.6539C54.8013 96.7541 54.5242 96.8042 54.1671 96.8042ZM51.4932 96.028H53.9718C53.9384 95.5607 53.8115 95.2119 53.5912 94.9815C53.3742 94.7479 53.0872 94.631 52.73 94.631C52.3895 94.631 52.1091 94.7495 51.8888 94.9865C51.6718 95.2202 51.5399 95.5674 51.4932 96.028Z" fill="#009052"/>
<path d="M59.9053 98.4766C59.5748 98.7336 59.2544 98.9272 58.9439 99.0574C58.6368 99.1843 58.2913 99.2477 57.9074 99.2477C57.5569 99.2477 57.2482 99.1792 56.9811 99.0424C56.7174 98.9022 56.5138 98.7136 56.3702 98.4766C56.2267 98.2396 56.1549 97.9825 56.1549 97.7055C56.1549 97.3316 56.2734 97.0128 56.5104 96.7491C56.7474 96.4854 57.0729 96.3084 57.4868 96.2183C57.5736 96.1983 57.7889 96.1532 58.1328 96.0831C58.4766 96.013 58.7703 95.9496 59.014 95.8929C59.2611 95.8328 59.5281 95.761 59.8152 95.6775C59.7985 95.317 59.7251 95.0533 59.5949 94.8864C59.468 94.7162 59.2026 94.631 58.7987 94.631C58.4516 94.631 58.1895 94.6794 58.0126 94.7762C57.839 94.873 57.6888 95.0183 57.5619 95.2119C57.4384 95.4055 57.35 95.534 57.2966 95.5974C57.2465 95.6575 57.1363 95.6876 56.9661 95.6876C56.8125 95.6876 56.679 95.6392 56.5655 95.5423C56.4554 95.4422 56.4003 95.3154 56.4003 95.1618C56.4003 94.9215 56.4854 94.6878 56.6556 94.4608C56.8259 94.2338 57.0913 94.0469 57.4518 93.9C57.8123 93.7531 58.2613 93.6797 58.7987 93.6797C59.3996 93.6797 59.8719 93.7514 60.2158 93.895C60.5596 94.0352 60.8016 94.2588 60.9418 94.5659C61.0854 94.873 61.1571 95.2803 61.1571 95.7877C61.1571 96.1082 61.1555 96.3802 61.1521 96.6039C61.1521 96.8275 61.1504 97.0762 61.1471 97.3499C61.1471 97.607 61.1888 97.8757 61.2723 98.1561C61.3591 98.4332 61.4025 98.6118 61.4025 98.6919C61.4025 98.8321 61.3357 98.9606 61.2022 99.0774C61.072 99.1909 60.9235 99.2477 60.7565 99.2477C60.6163 99.2477 60.4778 99.1826 60.3409 99.0524C60.2041 98.9189 60.0589 98.7269 59.9053 98.4766ZM59.8152 96.4987C59.6149 96.5722 59.3228 96.6506 58.9389 96.7341C58.5584 96.8142 58.2947 96.8743 58.1478 96.9143C58.0009 96.951 57.8607 97.0262 57.7272 97.1396C57.5937 97.2498 57.5269 97.405 57.5269 97.6053C57.5269 97.8123 57.6053 97.9892 57.7622 98.1361C57.9191 98.2796 58.1244 98.3514 58.3781 98.3514C58.6485 98.3514 58.8972 98.293 59.1242 98.1761C59.3545 98.056 59.5231 97.9024 59.6299 97.7155C59.7534 97.5085 59.8152 97.168 59.8152 96.694V96.4987Z" fill="#009052"/>
<path d="M62.5491 98.4165V92.4879C62.5491 92.2142 62.6092 92.0073 62.7294 91.8671C62.8529 91.7269 63.0181 91.6568 63.2251 91.6568C63.4321 91.6568 63.599 91.7269 63.7258 91.8671C63.8527 92.0039 63.9161 92.2109 63.9161 92.4879V98.4165C63.9161 98.6935 63.851 98.9022 63.7208 99.0424C63.594 99.1792 63.4287 99.2477 63.2251 99.2477C63.0248 99.2477 62.8612 99.1759 62.7344 99.0324C62.6109 98.8888 62.5491 98.6835 62.5491 98.4165Z" fill="#009052"/>
<path d="M65.4082 93.8099H65.5585V92.9887C65.5585 92.7684 65.5635 92.5964 65.5735 92.4729C65.5868 92.3461 65.6202 92.2376 65.6736 92.1475C65.727 92.054 65.8038 91.9789 65.904 91.9221C66.0041 91.862 66.1159 91.832 66.2394 91.832C66.413 91.832 66.5699 91.8971 66.7101 92.0273C66.8036 92.1141 66.862 92.2209 66.8854 92.3477C66.9121 92.4713 66.9254 92.6482 66.9254 92.8785V93.8099H67.4261C67.6198 93.8099 67.7666 93.8566 67.8668 93.9501C67.9703 94.0402 68.022 94.157 68.022 94.3006C68.022 94.4842 67.9486 94.6127 67.8017 94.6861C67.6581 94.7596 67.4512 94.7963 67.1808 94.7963H66.9254V97.3099C66.9254 97.5235 66.9321 97.6888 66.9455 97.8056C66.9621 97.9191 67.0022 98.0126 67.0656 98.086C67.1324 98.1561 67.2392 98.1912 67.3861 98.1912C67.4662 98.1912 67.5747 98.1778 67.7116 98.1511C67.8484 98.1211 67.9552 98.106 68.032 98.106C68.1422 98.106 68.2407 98.1511 68.3274 98.2412C68.4176 98.328 68.4626 98.4365 68.4626 98.5667C68.4626 98.787 68.3425 98.9556 68.1021 99.0724C67.8618 99.1893 67.5163 99.2477 67.0656 99.2477C66.6383 99.2477 66.3145 99.1759 66.0942 99.0324C65.8739 98.8888 65.7287 98.6902 65.6586 98.4365C65.5918 98.1828 65.5585 97.844 65.5585 97.42V94.7963H65.3782C65.1812 94.7963 65.031 94.7495 64.9275 94.6561C64.8241 94.5626 64.7723 94.4441 64.7723 94.3006C64.7723 94.157 64.8257 94.0402 64.9326 93.9501C65.0427 93.8566 65.2013 93.8099 65.4082 93.8099Z" fill="#009052"/>
<path d="M70.3053 92.4879V94.5159C70.4789 94.3156 70.6475 94.157 70.811 94.0402C70.9779 93.9233 71.1615 93.8366 71.3618 93.7798C71.5621 93.7197 71.7774 93.6897 72.0077 93.6897C72.3549 93.6897 72.662 93.7631 72.9291 93.91C73.1995 94.0569 73.4114 94.2705 73.565 94.5509C73.6618 94.7145 73.7269 94.8981 73.7603 95.1017C73.7936 95.302 73.8103 95.534 73.8103 95.7977V98.4165C73.8103 98.6902 73.7469 98.8972 73.6201 99.0374C73.4966 99.1776 73.3313 99.2477 73.1243 99.2477C72.6737 99.2477 72.4484 98.9706 72.4484 98.4165V96.1082C72.4484 95.6709 72.3833 95.3354 72.2531 95.1017C72.1229 94.8647 71.8759 94.7462 71.512 94.7462C71.2683 94.7462 71.048 94.8163 70.8511 94.9565C70.6575 95.0934 70.5123 95.282 70.4155 95.5223C70.342 95.7259 70.3053 96.0881 70.3053 96.6089V98.4165C70.3053 98.6869 70.2435 98.8938 70.12 99.0374C69.9999 99.1776 69.8313 99.2477 69.6143 99.2477C69.1637 99.2477 68.9383 98.9706 68.9383 98.4165V92.4879C68.9383 92.2109 68.9967 92.0039 69.1136 91.8671C69.2338 91.7269 69.4007 91.6568 69.6143 91.6568C69.8313 91.6568 69.9999 91.7269 70.12 91.8671C70.2435 92.0073 70.3053 92.2142 70.3053 92.4879Z" fill="#009052"/>
<path d="M82.2124 92.9286H79.2832V94.8063H81.7317C81.9587 94.8063 82.1273 94.858 82.2375 94.9615C82.351 95.0617 82.4077 95.1968 82.4077 95.3671C82.4077 95.5373 82.351 95.6725 82.2375 95.7727C82.124 95.8728 81.9554 95.9229 81.7317 95.9229H79.2832V98.3414C79.2832 98.6485 79.2131 98.8771 79.0729 99.0274C78.9361 99.1742 78.7591 99.2477 78.5421 99.2477C78.3218 99.2477 78.1416 99.1726 78.0014 99.0224C77.8645 98.8721 77.7961 98.6451 77.7961 98.3414V92.6932C77.7961 92.4796 77.8278 92.306 77.8912 92.1725C77.9546 92.0356 78.0531 91.9372 78.1866 91.8771C78.3235 91.8136 78.4971 91.7819 78.7074 91.7819H82.2124C82.4494 91.7819 82.6247 91.8353 82.7382 91.9422C82.855 92.0456 82.9134 92.1825 82.9134 92.3528C82.9134 92.5263 82.855 92.6665 82.7382 92.7734C82.6247 92.8768 82.4494 92.9286 82.2124 92.9286Z" fill="#009052"/>
<path d="M84.8963 97.2748V98.4165C84.8963 98.6935 84.8312 98.9022 84.701 99.0424C84.5708 99.1792 84.4056 99.2477 84.2053 99.2477C84.0084 99.2477 83.8465 99.1776 83.7196 99.0374C83.5928 98.8972 83.5293 98.6902 83.5293 98.4165V94.611C83.5293 93.9968 83.7513 93.6897 84.1953 93.6897C84.4223 93.6897 84.5859 93.7614 84.686 93.905C84.7861 94.0485 84.8412 94.2605 84.8512 94.5409C85.0148 94.2605 85.1817 94.0485 85.352 93.905C85.5255 93.7614 85.7559 93.6897 86.043 93.6897C86.33 93.6897 86.6088 93.7614 86.8792 93.905C87.1495 94.0485 87.2847 94.2388 87.2847 94.4758C87.2847 94.6427 87.2263 94.7813 87.1095 94.8914C86.996 94.9982 86.8725 95.0516 86.739 95.0516C86.6889 95.0516 86.567 95.0216 86.3734 94.9615C86.1832 94.8981 86.0146 94.8664 85.8677 94.8664C85.6674 94.8664 85.5038 94.9198 85.377 95.0266C85.2501 95.1301 85.1517 95.2853 85.0816 95.4923C85.0115 95.6992 84.9631 95.9463 84.9364 96.2333C84.9097 96.5171 84.8963 96.8642 84.8963 97.2748Z" fill="#009052"/>
<path d="M92.7626 96.4687C92.7626 96.8759 92.6992 97.2515 92.5724 97.5953C92.4455 97.9391 92.2619 98.2346 92.0216 98.4816C91.7812 98.7286 91.4941 98.9189 91.1603 99.0524C90.8265 99.1826 90.451 99.2477 90.0337 99.2477C89.6198 99.2477 89.2476 99.1809 88.9171 99.0474C88.5866 98.9139 88.2995 98.7236 88.0558 98.4766C87.8155 98.2262 87.6319 97.9325 87.5051 97.5953C87.3815 97.2548 87.3198 96.8793 87.3198 96.4687C87.3198 96.0548 87.3832 95.6759 87.5101 95.332C87.6369 94.9882 87.8188 94.6945 88.0558 94.4508C88.2929 94.2071 88.5799 94.0202 88.9171 93.89C89.2542 93.7564 89.6264 93.6897 90.0337 93.6897C90.4476 93.6897 90.8232 93.7564 91.1603 93.89C91.4975 94.0235 91.7862 94.2138 92.0266 94.4608C92.2669 94.7078 92.4488 95.0016 92.5724 95.3421C92.6992 95.6825 92.7626 96.0581 92.7626 96.4687ZM91.3906 96.4687C91.3906 95.9112 91.2671 95.4773 91.0201 95.1668C90.7764 94.8564 90.4476 94.7011 90.0337 94.7011C89.7666 94.7011 89.5313 94.7712 89.3277 94.9114C89.1241 95.0483 88.9672 95.2519 88.857 95.5223C88.7468 95.7927 88.6918 96.1082 88.6918 96.4687C88.6918 96.8259 88.7452 97.138 88.852 97.405C88.9622 97.6721 89.1174 97.8774 89.3177 98.0209C89.5213 98.1611 89.76 98.2312 90.0337 98.2312C90.4476 98.2312 90.7764 98.076 91.0201 97.7655C91.2671 97.4518 91.3906 97.0195 91.3906 96.4687Z" fill="#009052"/>
<path d="M98.3907 96.5688V98.3864C98.3907 98.6735 98.3256 98.8888 98.1954 99.0324C98.0653 99.1759 97.8933 99.2477 97.6797 99.2477C97.4727 99.2477 97.3042 99.1759 97.174 99.0324C97.0471 98.8888 96.9837 98.6735 96.9837 98.3864V96.2083C96.9837 95.8645 96.972 95.5974 96.9487 95.4072C96.9253 95.2169 96.8619 95.0617 96.7584 94.9415C96.6549 94.818 96.4913 94.7562 96.2677 94.7562C95.8204 94.7562 95.5249 94.9098 95.3814 95.2169C95.2412 95.524 95.1711 95.9646 95.1711 96.5388V98.3864C95.1711 98.6702 95.106 98.8855 94.9758 99.0324C94.849 99.1759 94.6804 99.2477 94.4701 99.2477C94.2631 99.2477 94.0929 99.1759 93.9594 99.0324C93.8292 98.8855 93.7641 98.6702 93.7641 98.3864V94.4758C93.7641 94.2188 93.8225 94.0235 93.9393 93.89C94.0595 93.7564 94.2164 93.6897 94.41 93.6897C94.5969 93.6897 94.7522 93.7531 94.8757 93.88C95.0025 94.0035 95.0659 94.1754 95.0659 94.3957V94.5259C95.303 94.2421 95.5566 94.0335 95.827 93.9C96.0974 93.7665 96.3979 93.6997 96.7283 93.6997C97.0722 93.6997 97.3676 93.7681 97.6146 93.905C97.8616 94.0419 98.0653 94.2488 98.2255 94.5259C98.4558 94.2455 98.7028 94.0385 98.9666 93.905C99.2303 93.7681 99.5224 93.6997 99.8428 93.6997C100.217 93.6997 100.539 93.7731 100.809 93.92C101.08 94.0669 101.282 94.2772 101.415 94.5509C101.532 94.7979 101.59 95.1868 101.59 95.7176V98.3864C101.59 98.6735 101.525 98.8888 101.395 99.0324C101.265 99.1759 101.093 99.2477 100.879 99.2477C100.672 99.2477 100.502 99.1759 100.369 99.0324C100.238 98.8855 100.173 98.6702 100.173 98.3864V96.0881C100.173 95.7944 100.16 95.559 100.133 95.3821C100.11 95.2052 100.043 95.0566 99.933 94.9365C99.8228 94.8163 99.6559 94.7562 99.4322 94.7562C99.252 94.7562 99.0801 94.8096 98.9165 94.9164C98.7563 95.0233 98.6311 95.1668 98.5409 95.3471C98.4408 95.5774 98.3907 95.9847 98.3907 96.5688Z" fill="#009052"/>
<path d="M107.073 92.558V94.6611H110.283V92.558C110.283 92.2576 110.35 92.0323 110.483 91.8821C110.62 91.7319 110.799 91.6568 111.019 91.6568C111.243 91.6568 111.423 91.7319 111.56 91.8821C111.7 92.029 111.77 92.2543 111.77 92.558V98.3414C111.77 98.6451 111.7 98.8721 111.56 99.0224C111.419 99.1726 111.239 99.2477 111.019 99.2477C110.795 99.2477 110.617 99.1726 110.483 99.0224C110.35 98.8688 110.283 98.6418 110.283 98.3414V95.8728H107.073V98.3414C107.073 98.6451 107.003 98.8721 106.863 99.0224C106.723 99.1726 106.542 99.2477 106.322 99.2477C106.098 99.2477 105.92 99.1726 105.786 99.0224C105.653 98.8688 105.586 98.6418 105.586 98.3414V92.558C105.586 92.2576 105.651 92.0323 105.781 91.8821C105.915 91.7319 106.095 91.6568 106.322 91.6568C106.546 91.6568 106.726 91.7319 106.863 91.8821C107.003 92.029 107.073 92.2543 107.073 92.558Z" fill="#009052"/>
<path d="M117.088 96.8042H114.414C114.417 97.1146 114.479 97.3883 114.599 97.6253C114.723 97.8624 114.884 98.0409 115.085 98.1611C115.288 98.2813 115.512 98.3414 115.756 98.3414C115.919 98.3414 116.068 98.323 116.201 98.2863C116.338 98.2462 116.47 98.1862 116.597 98.106C116.724 98.0226 116.841 97.9341 116.947 97.8407C117.054 97.7472 117.193 97.6203 117.363 97.4601C117.433 97.4 117.533 97.37 117.663 97.37C117.804 97.37 117.917 97.4084 118.004 97.4851C118.091 97.5619 118.134 97.6704 118.134 97.8106C118.134 97.9341 118.086 98.0793 117.989 98.2462C117.892 98.4098 117.745 98.5684 117.548 98.7219C117.355 98.8721 117.109 98.9973 116.812 99.0975C116.518 99.1976 116.18 99.2477 115.796 99.2477C114.918 99.2477 114.235 98.9973 113.748 98.4966C113.26 97.9959 113.017 97.3166 113.017 96.4587C113.017 96.0548 113.077 95.6809 113.197 95.3371C113.317 94.9899 113.492 94.6928 113.723 94.4458C113.953 94.1987 114.237 94.0101 114.574 93.88C114.911 93.7464 115.285 93.6797 115.696 93.6797C116.23 93.6797 116.687 93.7932 117.068 94.0202C117.452 94.2438 117.739 94.5342 117.929 94.8914C118.119 95.2486 118.214 95.6124 118.214 95.983C118.214 96.3268 118.116 96.5505 117.919 96.6539C117.722 96.7541 117.445 96.8042 117.088 96.8042ZM114.414 96.028H116.892C116.859 95.5607 116.732 95.2119 116.512 94.9815C116.295 94.7479 116.008 94.631 115.651 94.631C115.31 94.631 115.03 94.7495 114.809 94.9865C114.592 95.2202 114.461 95.5674 114.414 96.028Z" fill="#009052"/>
<path d="M122.826 98.4766C122.495 98.7336 122.175 98.9272 121.865 99.0574C121.557 99.1843 121.212 99.2477 120.828 99.2477C120.478 99.2477 120.169 99.1792 119.902 99.0424C119.638 98.9022 119.434 98.7136 119.291 98.4766C119.147 98.2396 119.076 97.9825 119.076 97.7055C119.076 97.3316 119.194 97.0128 119.431 96.7491C119.668 96.4854 119.993 96.3084 120.407 96.2183C120.494 96.1983 120.71 96.1532 121.053 96.0831C121.397 96.013 121.691 95.9496 121.935 95.8929C122.182 95.8328 122.449 95.761 122.736 95.6775C122.719 95.317 122.646 95.0533 122.515 94.8864C122.389 94.7162 122.123 94.631 121.719 94.631C121.372 94.631 121.11 94.6794 120.933 94.7762C120.76 94.873 120.609 95.0183 120.483 95.2119C120.359 95.4055 120.271 95.534 120.217 95.5974C120.167 95.6575 120.057 95.6876 119.887 95.6876C119.733 95.6876 119.6 95.6392 119.486 95.5423C119.376 95.4422 119.321 95.3154 119.321 95.1618C119.321 94.9215 119.406 94.6878 119.576 94.4608C119.746 94.2338 120.012 94.0469 120.372 93.9C120.733 93.7531 121.182 93.6797 121.719 93.6797C122.32 93.6797 122.793 93.7514 123.136 93.895C123.48 94.0352 123.722 94.2588 123.862 94.5659C124.006 94.873 124.078 95.2803 124.078 95.7877C124.078 96.1082 124.076 96.3802 124.073 96.6039C124.073 96.8275 124.071 97.0762 124.068 97.3499C124.068 97.607 124.109 97.8757 124.193 98.1561C124.28 98.4332 124.323 98.6118 124.323 98.6919C124.323 98.8321 124.256 98.9606 124.123 99.0774C123.993 99.1909 123.844 99.2477 123.677 99.2477C123.537 99.2477 123.398 99.1826 123.262 99.0524C123.125 98.9189 122.979 98.7269 122.826 98.4766ZM122.736 96.4987C122.535 96.5722 122.243 96.6506 121.86 96.7341C121.479 96.8142 121.215 96.8743 121.068 96.9143C120.922 96.951 120.781 97.0262 120.648 97.1396C120.514 97.2498 120.447 97.405 120.447 97.6053C120.447 97.8123 120.526 97.9892 120.683 98.1361C120.84 98.2796 121.045 98.3514 121.299 98.3514C121.569 98.3514 121.818 98.293 122.045 98.1761C122.275 98.056 122.444 97.9024 122.551 97.7155C122.674 97.5085 122.736 97.168 122.736 96.694V96.4987Z" fill="#009052"/>
<path d="M125.47 98.4165V92.4879C125.47 92.2142 125.53 92.0073 125.65 91.8671C125.773 91.7269 125.939 91.6568 126.146 91.6568C126.353 91.6568 126.52 91.7269 126.646 91.8671C126.773 92.0039 126.837 92.2109 126.837 92.4879V98.4165C126.837 98.6935 126.772 98.9022 126.641 99.0424C126.515 99.1792 126.349 99.2477 126.146 99.2477C125.945 99.2477 125.782 99.1759 125.655 99.0324C125.531 98.8888 125.47 98.6835 125.47 98.4165Z" fill="#009052"/>
<path d="M128.329 93.8099H128.479V92.9887C128.479 92.7684 128.484 92.5964 128.494 92.4729C128.507 92.3461 128.541 92.2376 128.594 92.1475C128.648 92.054 128.724 91.9789 128.825 91.9221C128.925 91.862 129.037 91.832 129.16 91.832C129.334 91.832 129.491 91.8971 129.631 92.0273C129.724 92.1141 129.783 92.2209 129.806 92.3477C129.833 92.4713 129.846 92.6482 129.846 92.8785V93.8099H130.347C130.54 93.8099 130.687 93.8566 130.787 93.9501C130.891 94.0402 130.943 94.157 130.943 94.3006C130.943 94.4842 130.869 94.6127 130.722 94.6861C130.579 94.7596 130.372 94.7963 130.101 94.7963H129.846V97.3099C129.846 97.5235 129.853 97.6888 129.866 97.8056C129.883 97.9191 129.923 98.0126 129.986 98.086C130.053 98.1561 130.16 98.1912 130.307 98.1912C130.387 98.1912 130.495 98.1778 130.632 98.1511C130.769 98.1211 130.876 98.106 130.953 98.106C131.063 98.106 131.161 98.1511 131.248 98.2412C131.338 98.328 131.383 98.4365 131.383 98.5667C131.383 98.787 131.263 98.9556 131.023 99.0724C130.782 99.1893 130.437 99.2477 129.986 99.2477C129.559 99.2477 129.235 99.1759 129.015 99.0324C128.795 98.8888 128.649 98.6902 128.579 98.4365C128.512 98.1828 128.479 97.844 128.479 97.42V94.7963H128.299C128.102 94.7963 127.952 94.7495 127.848 94.6561C127.745 94.5626 127.693 94.4441 127.693 94.3006C127.693 94.157 127.746 94.0402 127.853 93.9501C127.963 93.8566 128.122 93.8099 128.329 93.8099Z" fill="#009052"/>
<path d="M133.226 92.4879V94.5159C133.399 94.3156 133.568 94.157 133.732 94.0402C133.899 93.9233 134.082 93.8366 134.282 93.7798C134.483 93.7197 134.698 93.6897 134.928 93.6897C135.276 93.6897 135.583 93.7631 135.85 93.91C136.12 94.0569 136.332 94.2705 136.486 94.5509C136.582 94.7145 136.647 94.8981 136.681 95.1017C136.714 95.302 136.731 95.534 136.731 95.7977V98.4165C136.731 98.6902 136.668 98.8972 136.541 99.0374C136.417 99.1776 136.252 99.2477 136.045 99.2477C135.594 99.2477 135.369 98.9706 135.369 98.4165V96.1082C135.369 95.6709 135.304 95.3354 135.174 95.1017C135.044 94.8647 134.796 94.7462 134.433 94.7462C134.189 94.7462 133.969 94.8163 133.772 94.9565C133.578 95.0934 133.433 95.282 133.336 95.5223C133.263 95.7259 133.226 96.0881 133.226 96.6089V98.4165C133.226 98.6869 133.164 98.8938 133.041 99.0374C132.92 99.1776 132.752 99.2477 132.535 99.2477C132.084 99.2477 131.859 98.9706 131.859 98.4165V92.4879C131.859 92.2109 131.917 92.0039 132.034 91.8671C132.154 91.7269 132.321 91.6568 132.535 91.6568C132.752 91.6568 132.92 91.7269 133.041 91.8671C133.164 92.0073 133.226 92.2142 133.226 92.4879Z" fill="#009052"/>
<path d="M52.4624 28.7818C51.9406 15.3445 61.9208 4.48374 66.9761 0.733032C71.4334 5.67962 80.3481 18.2146 80.3481 28.7818C80.3481 41.9405 70.8898 47.8615 66.1607 50.7968C61.812 49.0574 52.9843 42.2191 52.4624 28.7818Z" fill="#009052"/>
<path d="M100.173 28.7818C99.6514 15.3445 109.632 4.48374 114.687 0.733032C119.144 5.67962 128.059 18.2146 128.059 28.7818C128.059 41.9405 118.601 47.8615 113.871 50.7968C109.523 49.0574 100.695 42.2191 100.173 28.7818Z" fill="#009052"/>
<path d="M32.9982 37.8809C32.6406 28.6728 39.0241 21.1289 42.4883 18.5587C45.9148 21.187 52.1074 30.6396 52.1074 37.8809C52.1074 46.2186 46.0065 50.586 42.1244 52.7696C39.1444 51.5776 33.3558 47.0891 32.9982 37.8809Z" fill="#009052"/>
<path d="M80.6981 37.8809C80.3405 28.6728 86.724 21.1289 90.1883 18.5587C93.6148 21.187 99.8073 30.6396 99.8073 37.8809C99.8073 46.2186 93.7064 50.586 89.8243 52.7696C86.8443 51.5776 81.0557 47.0891 80.6981 37.8809Z" fill="#009052"/>
<path d="M128.409 37.8809C128.051 28.6728 134.435 21.1289 137.899 18.5587C141.325 21.187 147.518 30.6396 147.518 37.8809C147.518 46.2186 141.417 50.586 137.535 52.7696C134.555 51.5776 128.766 47.0891 128.409 37.8809Z" fill="#009052"/>
<rect x="65.1718" y="49.5198" width="1.9422" height="11.6532" fill="#009052"/>
<rect x="112.883" y="49.5198" width="1.9422" height="11.6532" fill="#009052"/>
<rect x="41.0386" y="49.5198" width="1.9422" height="11.6532" fill="#009052"/>
<rect x="88.7385" y="49.5198" width="1.9422" height="11.6532" fill="#009052"/>
<rect x="136.449" y="49.5198" width="1.9422" height="11.6532" fill="#009052"/>
<rect x="28.278" y="59.9278" width="123.265" height="3.67762" fill="#009052"/>
<path d="M182.689 75.9981V71.8868H184.512C184.878 71.8868 185.157 71.9242 185.348 71.999C185.538 72.0719 185.691 72.2018 185.805 72.3888C185.919 72.5758 185.976 72.7824 185.976 73.0086C185.976 73.3003 185.881 73.5461 185.693 73.7462C185.504 73.9462 185.212 74.0734 184.818 74.1276C184.962 74.1968 185.071 74.265 185.146 74.3323C185.305 74.4781 185.455 74.6604 185.597 74.8792L186.312 75.9981H185.628L185.084 75.1428C184.925 74.896 184.794 74.7072 184.691 74.5763C184.589 74.4454 184.496 74.3538 184.414 74.3015C184.333 74.2491 184.251 74.2126 184.167 74.1921C184.105 74.179 184.004 74.1724 183.864 74.1724H183.233V75.9981H182.689ZM183.233 73.7013H184.403C184.651 73.7013 184.846 73.6761 184.986 73.6256C185.126 73.5732 185.233 73.491 185.306 73.3788C185.379 73.2647 185.415 73.1413 185.415 73.0086C185.415 72.8142 185.344 72.6543 185.202 72.529C185.062 72.4038 184.839 72.3411 184.534 72.3411H183.233V73.7013Z" fill="#009052"/>
<path fill-rule="evenodd" clip-rule="evenodd" d="M180.164 74.1163C180.164 76.3839 182.003 78.2221 184.27 78.2221C186.538 78.2221 188.376 76.3839 188.376 74.1163C188.376 71.8487 186.538 70.0105 184.27 70.0105C182.003 70.0105 180.164 71.8487 180.164 74.1163ZM184.27 69.658C181.808 69.658 179.812 71.654 179.812 74.1163C179.812 76.5786 181.808 78.5746 184.27 78.5746C186.732 78.5746 188.728 76.5786 188.728 74.1163C188.728 71.654 186.732 69.658 184.27 69.658Z" fill="#009052"/>
</svg>
