<svg width="172" height="60" viewBox="0 0 172 60" fill="none" xmlns="http://www.w3.org/2000/svg">
<path d="M39.7545 53.8882C39.7545 54.4703 39.9001 54.9924 40.1911 55.4546C40.4821 55.9168 41.0641 56.2677 41.9371 56.5074C42.8102 56.747 43.3323 56.961 43.5035 57.1493C43.6747 57.3376 43.7603 57.5687 43.7603 57.8426C43.7603 58.0823 43.5805 58.3134 43.221 58.5359C42.8615 58.7584 42.4079 58.8697 41.8601 58.8697C41.4321 58.8697 40.7217 58.7927 39.7289 58.6386C38.7531 58.4845 38.0941 58.4075 37.7517 58.4075C37.2381 58.4075 36.5277 58.476 35.6204 58.6129C34.7303 58.7499 34.0969 58.8183 33.7203 58.8183C32.4878 58.8183 31.8715 58.4503 31.8715 57.7142C31.8715 57.2862 31.9742 57.0038 32.1796 56.8668C32.4022 56.7299 32.8045 56.6186 33.3865 56.533C33.9685 56.4303 34.4478 56.2078 34.8244 55.8654C35.201 55.5059 35.3893 54.7442 35.3893 53.5801V38.1735C35.3893 37.6257 35.2182 37.1978 34.8758 36.8896C34.5505 36.5815 33.7973 36.4274 32.6162 36.4274H21.3693C20.4107 36.4274 19.7944 36.3247 19.5205 36.1193C19.2638 35.9139 19.1354 35.6057 19.1354 35.1949C19.1354 34.7841 19.3066 34.4845 19.6489 34.2962C20.0084 34.1079 20.6504 34.0137 21.5748 34.0137H33.7203C34.3879 34.0137 34.8159 33.911 35.0042 33.7056C35.1925 33.4831 35.2866 33.0722 35.2866 32.4731C35.2866 28.6899 35.2353 26.4046 35.1326 25.6171C35.047 24.8126 34.3366 24.2305 33.0013 23.8711C32.2995 23.6656 31.8629 23.4516 31.6918 23.2291C31.5377 23.0066 31.4607 22.7412 31.4607 22.4331C31.4607 22.2277 31.589 22.0308 31.8458 21.8425C32.1026 21.6371 32.4107 21.5344 32.7702 21.5344C33.4378 21.5344 34.251 21.6114 35.2096 21.7655C36.1682 21.9024 36.93 21.9709 37.4949 21.9709C38.0769 21.9709 38.7874 21.911 39.6262 21.7912C40.4821 21.6542 41.2952 21.5857 42.0655 21.5857C42.8872 21.5857 43.2981 21.9195 43.2981 22.5872C43.2981 23.0151 43.1953 23.2976 42.9899 23.4345C42.7845 23.5715 42.3908 23.6913 41.8088 23.794C41.2267 23.8967 40.7389 24.1449 40.3451 24.5387C39.9514 24.9153 39.7545 25.7198 39.7545 26.9524V53.8882ZM17.8258 53.8882C17.8258 54.4189 17.9628 54.8982 18.2367 55.3262C18.5277 55.7541 19.1097 56.1136 19.9827 56.4046C20.8558 56.6785 21.3779 56.9182 21.5491 57.1236C21.7374 57.329 21.8315 57.5687 21.8315 57.8426C21.8315 58.0823 21.6518 58.3134 21.2923 58.5359C20.9328 58.7584 20.4792 58.8697 19.9314 58.8697C19.5034 58.8697 18.793 58.7927 17.8001 58.6386C16.8244 58.4845 16.1653 58.4075 15.823 58.4075C15.3094 58.4075 14.599 58.476 13.6917 58.6129C12.8016 58.7499 12.1682 58.8183 11.7916 58.8183C10.559 58.8183 9.94278 58.4503 9.94278 57.7142C9.94278 57.2862 10.0455 57.0038 10.2509 56.8668C10.4563 56.7299 10.8415 56.6186 11.4064 56.533C11.9713 56.4303 12.4335 56.2078 12.793 55.8654C13.1696 55.5059 13.3579 54.7442 13.3579 53.5801V26.5415C13.3579 25.9595 13.2295 25.4374 12.9727 24.9752C12.716 24.4959 12.1596 24.1449 11.3037 23.9224C10.4649 23.6827 9.9599 23.4516 9.78872 23.2291C9.61753 23.0066 9.53194 22.7412 9.53194 22.4331C9.53194 22.2277 9.66033 22.0308 9.9171 21.8425C10.1739 21.6371 10.482 21.5344 10.8415 21.5344C11.5091 21.5344 12.3222 21.6114 13.2809 21.7655C14.2395 21.9024 15.0013 21.9709 15.5662 21.9709C16.1482 21.9709 16.8586 21.911 17.6974 21.7912C18.5534 21.6542 19.3665 21.5857 20.1368 21.5857C20.9585 21.5857 21.3693 21.9195 21.3693 22.5872C21.3693 23.0151 21.2581 23.3061 21.0355 23.4602C20.8301 23.5972 20.4364 23.7341 19.8544 23.8711C19.2723 23.9909 18.7845 24.2477 18.3907 24.6414C18.0141 25.018 17.8258 25.7883 17.8258 26.9524V53.8882Z" fill="#096506"/>
<path d="M61.4008 48.4189C61.7945 48.4189 62.0599 48.3504 62.1968 48.2135C62.3338 48.0765 62.4022 47.8283 62.4022 47.4688C62.4022 46.1507 61.8887 44.9182 60.8616 43.7712C59.8516 42.6243 58.3195 42.0508 56.2653 42.0508C54.8444 42.0508 53.3723 42.727 51.8487 44.0794C50.3423 45.4317 49.5891 47.349 49.5891 49.8312C49.5891 51.6457 50.3851 53.2805 51.9771 54.7356C53.5862 56.1735 55.3837 56.8925 57.3694 56.8925C58.8758 56.8925 60.5021 56.4218 62.2482 55.4803C62.9158 55.1208 63.3523 54.941 63.5577 54.941C63.8659 54.941 64.1055 55.0266 64.2767 55.1978C64.465 55.369 64.5592 55.583 64.5592 55.8397C64.5592 56.456 63.6091 57.2178 61.7089 58.125C59.8259 59.0152 57.883 59.4603 55.8801 59.4603C52.9186 59.4603 50.4279 58.4503 48.4079 56.4303C46.3879 54.4103 45.3779 52.0052 45.3779 49.2149C45.3779 46.6643 46.4821 44.4817 48.6904 42.6671C50.9158 40.8525 53.4065 39.9453 56.1626 39.9453C59.7403 39.9453 62.4194 40.8611 64.1997 42.6928C65.98 44.5244 66.8701 46.7156 66.8701 49.2663C66.8701 49.814 66.7332 50.1564 66.4593 50.2934C66.1854 50.4132 65.6804 50.4731 64.9443 50.4731H53.1583C52.1996 50.4731 51.7203 50.1222 51.7203 49.4203C51.7203 48.7527 52.2168 48.4189 53.2096 48.4189H61.4008Z" fill="#096506"/>
<path d="M76.1141 46.0052L76.2168 46.7242C76.3024 46.7242 76.7047 45.911 77.4237 44.2848C78.1426 42.6585 78.8531 41.503 79.5549 40.8183C80.2568 40.1336 80.9843 39.7912 81.7375 39.7912C82.3195 39.7912 82.7561 39.8939 83.0471 40.0993C83.3552 40.3048 83.5093 40.5359 83.5093 40.7926C83.5093 41.2377 83.4066 41.5972 83.2011 41.8711C82.9957 42.1279 82.6362 42.4531 82.1227 42.8468C79.9486 44.5073 78.3737 46.5273 77.398 48.9068C76.4394 51.2862 75.96 53.2634 75.96 54.8383C75.96 55.5744 76.0542 56.0794 76.2425 56.3533C76.4479 56.6101 76.9272 56.8326 77.6804 57.0209C78.4337 57.1921 78.9215 57.3804 79.1441 57.5858C79.3666 57.7912 79.4779 58.0309 79.4779 58.3048C79.4779 58.8012 79.1783 59.0494 78.5792 59.0494C78.0998 59.0494 77.4322 58.9639 76.5763 58.7927C75.7375 58.6386 74.8302 58.5616 73.8545 58.5616C73.204 58.5616 72.5449 58.6386 71.8773 58.7927C71.2097 58.9639 70.7817 59.0494 70.5934 59.0494C70.1141 59.0494 69.7289 58.9553 69.4379 58.767C69.1469 58.5958 69.0014 58.3733 69.0014 58.0994C69.0014 57.894 69.0784 57.7142 69.2325 57.5601C69.4037 57.389 69.8659 57.175 70.6191 56.9182C71.3723 56.6614 71.8345 56.4046 72.0057 56.1479C72.1769 55.8911 72.2625 55.0865 72.2625 53.7342V45.9025C72.2625 45.406 72.1426 44.961 71.903 44.5672C71.6804 44.1735 71.2182 43.8739 70.5164 43.6685C69.8316 43.446 69.4208 43.2577 69.2839 43.1036C69.164 42.9496 69.1041 42.7784 69.1041 42.5901C69.1041 42.0252 69.5064 41.7427 70.311 41.7427C70.5335 41.7427 70.9015 41.7855 71.4151 41.8711C71.9458 41.9567 72.3138 41.9995 72.5192 41.9995C72.6904 41.9995 72.9643 41.9652 73.3409 41.8968C73.7346 41.8283 74.1968 41.7941 74.7275 41.7941C75.6519 41.7941 76.1141 42.7784 76.1141 44.747V46.0052Z" fill="#096506"/>
<path d="M92.8046 57.6115C92.7019 57.7142 92.5992 57.894 92.4965 58.1507C92.3937 58.3904 92.2654 58.5701 92.1113 58.69C91.9743 58.8098 91.7176 58.8697 91.341 58.8697C91.0499 58.8697 90.5877 58.7927 89.9544 58.6386C89.3381 58.4845 88.8502 58.4075 88.4907 58.4075C88.1312 58.4075 87.6263 58.4845 86.9758 58.6386C86.3424 58.7927 85.8631 58.8697 85.5378 58.8697C85.1441 58.8697 84.8017 58.767 84.5107 58.5616C84.2197 58.3733 84.0742 58.1079 84.0742 57.7656C84.0742 57.543 84.1598 57.3547 84.331 57.2007C84.5021 57.0466 85.0927 56.8668 86.1027 56.6614C87.1298 56.456 87.8231 56.0623 88.1826 55.4803C88.5592 54.8982 88.7475 54.2049 88.7475 53.4004V27.0037C88.7475 25.5829 88.4137 24.59 87.7461 24.0251C87.3695 23.6999 86.7618 23.4773 85.923 23.3575C85.1013 23.2377 84.6049 23.0836 84.4337 22.8953C84.2625 22.6899 84.1769 22.4502 84.1769 22.1763C84.1769 21.9024 84.3395 21.6799 84.6648 21.5087C85.0071 21.3204 85.3324 21.2263 85.6405 21.2263C85.9829 21.2263 86.4879 21.2947 87.1555 21.4317C87.8231 21.5686 88.3195 21.6371 88.6448 21.6371C88.9529 21.6371 89.3895 21.5857 89.9544 21.483C90.5193 21.3803 90.9387 21.329 91.2126 21.329C91.7261 21.329 92.1027 21.4745 92.3424 21.7655C92.582 22.0394 92.7019 22.5615 92.7019 23.3318V53.349C92.7019 54.4103 93.3524 55.3519 94.6534 56.1735C95.9715 56.9952 97.2126 57.4061 98.3766 57.4061C99.7119 57.4061 101.124 56.8412 102.613 55.7113C104.103 54.5815 104.847 52.7071 104.847 50.0879C104.847 48.0508 104.257 46.3133 103.076 44.8754C101.894 43.4203 100.362 42.6928 98.4793 42.6928C97.7604 42.6928 97.0157 42.8982 96.2454 43.309C95.4922 43.7028 94.9957 43.8996 94.7561 43.8996C94.5507 43.8996 94.3367 43.814 94.1141 43.6428C93.9087 43.4545 93.806 43.2748 93.806 43.1036C93.806 42.3333 94.4651 41.6571 95.7832 41.0751C97.1013 40.4931 98.2654 40.202 99.2754 40.202C102.083 40.202 104.419 41.212 106.285 43.232C108.168 45.2349 109.11 47.6828 109.11 50.5758C109.11 53.2292 108.126 55.4203 106.157 57.1493C104.205 58.8611 101.843 59.7171 99.0699 59.7171C97.6662 59.7171 95.8859 59.1607 93.729 58.048L92.8046 57.6115Z" fill="#096506"/>
<path d="M118.431 52.7327C118.431 54.1707 118.499 55.0951 118.636 55.5059C118.773 55.8997 119.021 56.0965 119.381 56.0965C119.946 56.0965 120.639 55.7884 121.461 55.1721C122.283 54.5559 122.83 54.2477 123.104 54.2477C123.327 54.2477 123.524 54.3504 123.695 54.5559C123.866 54.7613 123.952 55.0095 123.952 55.3005C123.952 55.7798 123.275 56.5758 121.923 57.6885C120.588 58.8012 119.407 59.3576 118.38 59.3576C115.675 59.3576 114.322 57.3718 114.322 53.4004V43.5145C114.322 43.1892 114.28 43.018 114.194 43.0009C114.108 42.9667 113.629 42.9496 112.756 42.9496C112.071 42.9496 111.609 42.8554 111.37 42.6671C111.13 42.4617 111.01 42.1707 111.01 41.7941C111.01 41.4688 111.096 41.2377 111.267 41.1008C111.455 40.9638 111.806 40.8269 112.32 40.6899C112.85 40.5359 113.253 40.3647 113.526 40.1764C113.817 39.9709 114.211 39.5601 114.708 38.9438C115.221 38.3105 115.581 37.4289 115.786 36.299C116.009 35.1692 116.12 33.543 116.12 31.4203C116.12 30.4103 116.394 29.9053 116.942 29.9053C117.558 29.9053 117.943 30.0508 118.097 30.3418C118.251 30.6157 118.328 31.0865 118.328 31.7541V40.3304C118.328 40.6728 118.551 40.844 118.996 40.844H122.642C123.378 40.844 123.746 41.1607 123.746 41.7941C123.746 42.5301 123.215 42.8982 122.154 42.8982H118.944C118.705 42.8982 118.559 42.941 118.508 43.0266C118.457 43.0951 118.431 43.2834 118.431 43.5915V52.7327Z" fill="#096506"/>
<path d="M137.201 39.8939C140.043 39.8939 142.517 40.8697 144.622 42.8212C146.745 44.7727 147.806 47.0237 147.806 49.5744C147.806 52.4332 146.796 54.7613 144.776 56.5587C142.756 58.3561 140.051 59.2549 136.662 59.2549C133.992 59.2549 131.586 58.339 129.447 56.5074C127.324 54.6757 126.263 52.3989 126.263 49.6771C126.263 47.0751 127.196 44.7983 129.061 42.8468C130.944 40.8782 133.658 39.8939 137.201 39.8939ZM137.253 56.9952C139.221 56.9952 140.788 56.2848 141.952 54.864C143.133 53.4432 143.723 51.6457 143.723 49.4717C143.723 47.3319 143.09 45.5772 141.823 44.2078C140.574 42.8383 138.982 42.1535 137.047 42.1535C135.061 42.1535 133.521 42.8297 132.425 44.1821C131.33 45.5173 130.782 47.2463 130.782 49.369C130.782 51.7142 131.39 53.5715 132.605 54.941C133.82 56.3105 135.37 56.9952 137.253 56.9952Z" fill="#096506"/>
<path d="M168.939 54.8897C168.939 55.6258 169.059 56.1136 169.298 56.3533C169.555 56.5758 170 56.7641 170.634 56.9182C171.284 57.0551 171.609 57.3205 171.609 57.7142C171.609 58.2449 171.293 58.5102 170.659 58.5102C170.539 58.5102 170.026 58.4845 169.119 58.4332C168.211 58.3818 167.45 58.3561 166.833 58.3561C165.806 58.3561 164.942 58.4161 164.24 58.5359C163.538 58.6557 163.084 58.7156 162.879 58.7156C162.571 58.7156 162.28 58.6129 162.006 58.4075C161.749 58.2021 161.621 57.9539 161.621 57.6628C161.621 57.4403 161.732 57.2349 161.955 57.0466C162.177 56.8412 162.434 56.7385 162.725 56.7385C163.273 56.7385 163.761 56.5844 164.188 56.2763C164.616 55.951 164.83 55.4717 164.83 54.8383C164.83 50.7128 164.856 48.1621 164.907 47.1864C164.959 46.1935 164.984 45.6371 164.984 45.5173C164.984 44.1821 164.368 43.5145 163.136 43.5145C162.605 43.5145 161.843 43.9253 160.85 44.747C159.875 45.5516 159.181 45.9538 158.77 45.9538C158.634 45.9538 158.479 45.8682 158.308 45.6971C158.137 45.5259 158.052 45.3461 158.052 45.1578C158.052 44.5587 158.839 43.6428 160.414 42.4103C161.989 41.1607 163.529 40.5359 165.036 40.5359C165.926 40.5359 166.696 40.7669 167.347 41.2291C167.997 41.6742 168.425 42.2391 168.631 42.9239C168.853 43.6086 168.965 44.5758 168.965 45.8255L168.939 47.4688V54.8897ZM153.198 45.0038C153.198 44.3704 153.07 43.8996 152.813 43.5915C152.574 43.2662 152.06 43.0351 151.273 42.8982C150.485 42.7612 150.091 42.4103 150.091 41.8454C150.091 41.6058 150.228 41.3747 150.502 41.1521C150.776 40.9125 151.136 40.7926 151.581 40.7926C151.769 40.7926 152.094 40.8525 152.556 40.9724C153.036 41.0922 153.43 41.1521 153.738 41.1521C153.926 41.1521 154.354 41.1008 155.022 40.998C155.706 40.8953 156.134 40.844 156.305 40.844C156.648 40.844 156.887 40.9895 157.024 41.2805C157.161 41.5544 157.238 42.1193 157.256 42.9752C157.29 44.3961 157.307 45.911 157.307 47.5202L157.153 54.8383C157.153 55.369 157.196 55.6942 157.281 55.8141C157.367 55.9339 157.564 56.088 157.872 56.2763C158.197 56.4646 158.608 56.6101 159.104 56.7128C159.601 56.8155 159.917 56.961 160.054 57.1493C160.191 57.3205 160.26 57.5259 160.26 57.7656C160.26 58.3305 159.815 58.6129 158.925 58.6129C158.308 58.6129 157.675 58.5616 157.024 58.4589C156.374 58.3561 155.732 58.3048 155.099 58.3048C154.585 58.3048 153.917 58.3476 153.096 58.4332C152.291 58.5188 151.692 58.5616 151.298 58.5616C150.425 58.5616 149.989 58.2449 149.989 57.6115C149.989 57.3376 150.066 57.1151 150.22 56.9439C150.374 56.7727 150.708 56.67 151.221 56.6357C151.803 56.6015 152.163 56.5159 152.3 56.379C152.693 55.9681 152.942 55.6086 153.044 55.3005C153.147 54.9924 153.198 54.359 153.198 53.4004V45.0038Z" fill="#096506"/>
<path d="M15.0362 8.69159C13.4085 5.9152 13.4074 2.84117 13.552 1.16479C16.0432 2.96943 18.7179 4.43828 20.0699 8.47557C21.1207 11.6136 20.4843 14.6422 20.1186 15.7679C19.4076 14.697 16.6258 11.4031 15.0362 8.69159Z" fill="#077C01"/>
<path d="M20.1168 15.7663L13.5497 1.16308C12.9643 2.53198 12.4331 6.21904 14.6694 9.69613C16.9057 13.1732 19.2076 15.1973 20.1168 15.7663Z" fill="#096506"/>
<path d="M10.8094 17.3247C7.59114 17.3074 4.94702 15.7395 3.5792 14.7596C6.40255 13.5383 9.0308 11.9878 13.1927 12.8857C16.4275 13.5836 18.7072 15.6766 19.4886 16.5655C18.2048 16.6304 13.9525 17.3415 10.8094 17.3247Z" fill="#077C01"/>
<path d="M19.4863 16.5664L3.57651 14.7608C4.45498 15.9628 7.35454 18.3015 11.486 18.1529C15.6175 18.0044 18.5329 17.0578 19.4863 16.5664Z" fill="#096506"/>
<path d="M5.29657 7.57083C2.43264 6.10267 0.781003 3.51004 0.00281655 2.0182C3.07346 2.20287 6.1186 2.00574 9.42699 4.68566C11.9984 6.76863 13.0879 9.66531 13.3839 10.8113C12.209 10.2897 8.09362 9.0047 5.29657 7.57083Z" fill="#077C01"/>
<path d="M13.3815 10.811L0 2.01805C0.241281 3.48717 1.77293 6.88285 5.52657 8.6153C9.28022 10.3478 12.309 10.8192 13.3815 10.811Z" fill="#096506"/>
<path d="M36.2362 8.07236C38.1366 5.47503 38.449 2.41691 38.4748 0.734509C35.8137 2.27765 33.004 3.46815 31.2503 7.34782C29.8872 10.3633 30.2137 13.4408 30.4635 14.5977C31.2793 13.6043 34.3802 10.609 36.2362 8.07236Z" fill="#077C01"/>
<path d="M30.4655 14.5963L38.4773 0.733032C38.921 2.15417 39.0763 5.87606 36.4994 9.10888C33.9226 12.3417 31.4275 14.1223 30.4655 14.5963Z" fill="#096506"/>
<path d="M39.5672 17.089C42.7707 17.3977 45.56 16.1056 47.02 15.2692C44.3348 13.7683 41.877 11.9596 37.6456 12.4316C34.3568 12.7984 31.8769 14.6498 31.0095 15.455C32.2801 15.6496 36.4385 16.7876 39.5672 17.089Z" fill="#077C01"/>
<path d="M31.0117 15.4561L47.0225 15.2706C46.0269 16.3775 42.9054 18.4106 38.8102 17.8445C34.715 17.2785 31.9104 16.0416 31.0117 15.4561Z" fill="#096506"/>
<path d="M46.0393 7.94344C49.0371 6.77278 50.9427 4.36069 51.868 2.9553C48.7944 2.82814 45.7849 2.32372 42.2222 4.65491C39.453 6.46683 38.0759 9.23833 37.6654 10.3484C38.8871 9.94849 43.1114 9.08675 46.0393 7.94344Z" fill="#077C01"/>
<path d="M37.6678 10.3484L51.8708 2.95544C51.482 4.39258 49.6144 7.61575 45.7047 8.95926C41.7949 10.3028 38.734 10.4651 37.6678 10.3484Z" fill="#096506"/>
</svg>
