<svg width="906" height="385" viewBox="0 0 906 385" fill="none" xmlns="http://www.w3.org/2000/svg">
<g opacity="0.2">
<path d="M92.5534 116.293C107.32 121.725 132.436 133.642 149.079 157.554C157.386 169.489 165.766 184.502 172.857 197.813C175.347 202.487 177.68 206.956 179.795 211.007C183.365 217.846 186.315 223.494 188.348 226.932C176.864 225.376 150.011 218.756 128.45 198.442C103.211 174.663 98.7284 150.025 94.2278 125.291C93.6823 122.293 93.1365 119.293 92.5534 116.293Z" fill="#D9D9D9" fill-opacity="0.38" stroke="#F6F6F6"/>
<path d="M158.951 158.352C178.421 188.946 186.679 214.946 188.554 225.91L93.0315 116.046C107.319 116.931 139.031 127.049 158.951 158.352Z" fill="#F6F6F6" stroke="#F6F6F6"/>
<path d="M244.773 85.3633C247.639 100.833 250.209 128.515 238.139 155.031C232.115 168.266 223.482 183.134 215.654 196.026C212.905 200.553 210.253 204.84 207.848 208.726C203.79 215.287 200.437 220.706 198.519 224.208C193.996 213.539 185.984 187.067 192.449 158.159C200.017 124.318 218.917 107.889 237.89 91.3953C240.19 89.396 242.491 87.3957 244.773 85.3633Z" fill="#D9D9D9" fill-opacity="0.38" stroke="#F6F6F6"/>
<path d="M242.492 163.926C226.119 196.283 207.975 216.654 199.502 223.862L245.23 85.6463C251.76 98.3844 259.244 130.819 242.492 163.926Z" fill="#F6F6F6" stroke="#F6F6F6"/>
<path d="M151.878 5.77778C161.418 18.2884 176.207 41.8288 177.407 70.9383C178.006 85.4667 177.014 102.632 175.848 117.669C175.439 122.949 175.007 127.971 174.616 132.525C173.956 140.211 173.411 146.56 173.28 150.551C164.428 143.072 145.33 123.068 138.049 94.3539C129.526 60.7411 138.974 37.5499 148.459 14.2672C149.609 11.445 150.759 8.62141 151.878 5.77778Z" fill="#D9D9D9" fill-opacity="0.38" stroke="#F6F6F6"/>
<path d="M185.305 76.9128C185.301 113.176 178.307 139.544 174.001 149.8L152.412 5.82619C163.989 14.2448 185.309 39.8087 185.305 76.9128Z" fill="#F6F6F6" stroke="#F6F6F6"/>
<path d="M185.147 286.057C198.618 294.184 221.026 310.64 232.843 337.27C238.74 350.561 244.128 366.888 248.572 381.301C250.132 386.362 251.577 391.192 252.888 395.57C255.099 402.96 256.926 409.065 258.272 412.825C247.29 409.124 222.175 397.541 204.848 373.514C184.566 345.388 184.827 320.348 185.088 295.209C185.12 292.162 185.152 289.113 185.147 286.057Z" fill="#D9D9D9" fill-opacity="0.38" stroke="#F6F6F6"/>
<path d="M242.383 339.92C255.71 373.646 258.899 400.739 258.665 411.86L185.66 285.903C199.522 289.476 228.746 305.413 242.383 339.92Z" fill="#F6F6F6" stroke="#F6F6F6"/>
<path d="M340.47 284.494C340.357 300.226 337.641 327.894 320.772 351.647C312.352 363.502 301.061 376.468 290.934 387.646C287.378 391.57 283.963 395.278 280.867 398.639C275.64 404.313 271.322 409 268.776 412.076C266.354 400.743 263.496 373.234 275.316 346.071C289.151 314.275 310.818 301.719 332.57 289.114C335.207 287.586 337.845 286.057 340.47 284.494Z" fill="#D9D9D9" fill-opacity="0.38" stroke="#F6F6F6"/>
<path d="M323.363 361.204C301.163 389.877 279.491 406.446 269.808 411.921L340.866 284.857C344.868 298.6 346.078 331.865 323.363 361.204Z" fill="#F6F6F6" stroke="#F6F6F6"/>
<path d="M264.316 188.766C271.316 202.856 281.383 228.77 277.052 257.58C274.89 271.96 270.668 288.627 266.677 303.172C265.276 308.279 263.902 313.129 262.656 317.526C260.554 324.948 258.817 331.079 257.933 334.974C250.656 325.954 235.689 302.697 233.974 273.124C231.966 238.506 245.632 217.522 259.352 196.455C261.015 193.901 262.679 191.347 264.316 188.766Z" fill="#D9D9D9" fill-opacity="0.38" stroke="#F6F6F6"/>
<path d="M283.676 264.942C276.809 300.549 264.951 325.117 258.782 334.373L264.83 188.915C274.605 199.373 290.701 228.509 283.676 264.942Z" fill="#F6F6F6" stroke="#F6F6F6"/>
<path d="M454.859 229.951C450.402 245.04 440.148 270.88 417.372 289.048C406.004 298.115 391.57 307.456 378.749 315.401C374.248 318.19 369.941 320.81 366.036 323.184C359.445 327.193 354.001 330.504 350.703 332.757C351.507 321.197 356.362 293.969 375.226 271.129C397.309 244.393 421.601 238.313 445.989 232.209C448.946 231.469 451.903 230.729 454.859 229.951Z" fill="#D9D9D9" fill-opacity="0.38" stroke="#F6F6F6"/>
<path d="M417.223 298.952C387.964 320.375 362.558 330.311 351.739 332.897L455.14 230.413C455.188 244.727 447.16 277.032 417.223 298.952Z" fill="#F6F6F6" stroke="#F6F6F6"/>
<path d="M495.652 379.831C480.402 383.699 452.947 388.069 425.7 377.754C412.101 372.606 396.701 364.961 383.326 357.99C378.63 355.542 374.179 353.175 370.144 351.03C363.333 347.408 357.707 344.416 354.086 342.73C364.438 337.521 390.331 327.8 419.599 332.366C453.861 337.711 471.488 355.498 489.184 373.356C491.329 375.52 493.476 377.686 495.652 379.831Z" fill="#D9D9D9" fill-opacity="0.38" stroke="#F6F6F6"/>
<path d="M417.106 382.677C383.751 368.449 362.24 351.672 354.494 343.688L495.398 380.304C483.113 387.651 451.235 397.234 417.106 382.677Z" fill="#F6F6F6" stroke="#F6F6F6"/>
<path d="M569.008 281.941C557.147 292.277 534.621 308.57 505.652 311.666C491.193 313.211 474 313.34 458.919 313.158C453.623 313.094 448.583 312.991 444.014 312.897C436.301 312.74 429.931 312.61 425.939 312.74C432.825 303.419 451.541 283.056 479.719 273.919C512.704 263.222 536.462 271.137 560.314 279.083C563.205 280.047 566.098 281.01 569.008 281.941Z" fill="#D9D9D9" fill-opacity="0.38" stroke="#F6F6F6"/>
<path d="M500.204 319.94C464.018 322.301 437.25 317.041 426.734 313.413L568.994 282.481C561.348 294.582 537.229 317.524 500.204 319.94Z" fill="#F6F6F6" stroke="#F6F6F6"/>
<path d="M376.114 55.1933C379.176 70.6258 382.097 98.2722 370.365 124.94C364.509 138.25 356.065 153.227 348.401 166.217C345.71 170.778 343.113 175.098 340.758 179.015C336.783 185.626 333.5 191.088 331.626 194.614C326.968 184.003 318.621 157.636 324.718 128.647C331.856 94.7134 350.545 78.0456 369.308 61.3121C371.582 59.2838 373.858 57.2545 376.114 55.1933Z" fill="#D9D9D9" fill-opacity="0.38" stroke="#F6F6F6"/>
<path d="M374.833 133.78C358.872 166.342 340.988 186.942 332.608 194.257L376.577 55.4717C383.268 68.1258 391.164 100.463 374.833 133.78Z" fill="#F6F6F6" stroke="#F6F6F6"/>
<path d="M481.856 168.974C470.147 179.483 447.863 196.105 418.943 199.627C404.508 201.384 387.319 201.766 372.237 201.805C366.941 201.819 361.9 201.79 357.33 201.764C349.616 201.72 343.244 201.684 339.255 201.872C346.003 192.451 364.417 171.816 392.458 162.265C425.283 151.084 449.154 158.649 473.12 166.244C476.025 167.165 478.932 168.086 481.856 168.974Z" fill="#D9D9D9" fill-opacity="0.38" stroke="#F6F6F6"/>
<path d="M413.622 207.979C377.474 210.871 350.632 206.005 340.064 202.532L481.854 169.513C474.387 181.725 450.608 205.019 413.622 207.979Z" fill="#F6F6F6" stroke="#F6F6F6"/>
<path d="M501.353 48.2151C495.65 62.878 483.269 87.7692 459.052 103.966C446.965 112.05 431.799 120.151 418.359 126.994C413.639 129.397 409.128 131.647 405.039 133.686C398.135 137.129 392.433 139.973 388.958 141.942C390.727 130.489 397.844 103.763 418.554 82.583C442.797 57.7892 467.513 53.7638 492.326 49.7224C495.334 49.2325 498.343 48.7424 501.353 48.2151Z" fill="#D9D9D9" fill-opacity="0.38" stroke="#F6F6F6"/>
<path d="M458.069 113.822C427.12 132.721 400.972 140.496 389.974 142.167L501.59 48.6978C500.44 62.9661 489.736 94.4853 458.069 113.822Z" fill="#F6F6F6" stroke="#F6F6F6"/>
<path d="M501.072 124.383C515.208 131.289 538.981 145.702 553.103 171.185C560.151 183.903 566.96 199.691 572.659 213.655C574.66 218.559 576.526 223.242 578.217 227.487C581.073 234.654 583.432 240.573 585.104 244.199C573.839 241.482 547.799 232.163 528.419 209.76C505.732 183.534 503.781 158.569 501.822 133.504C501.584 130.466 501.346 127.427 501.072 124.383Z" fill="#D9D9D9" fill-opacity="0.38" stroke="#F6F6F6"/>
<path d="M562.843 172.983C579.096 205.4 584.664 232.105 585.413 243.204L501.572 124.185C515.695 126.521 546.212 139.815 562.843 172.983Z" fill="#F6F6F6" stroke="#F6F6F6"/>
<path d="M655.651 109.112C656.927 124.793 656.665 152.592 641.959 177.742C634.619 190.294 624.516 204.207 615.416 216.235C612.221 220.458 609.146 224.453 606.359 228.074C601.653 234.187 597.767 239.237 595.502 242.526C592.089 231.451 586.813 204.302 596.188 176.202C607.162 143.308 627.636 128.888 648.19 114.411C650.681 112.657 653.174 110.901 655.651 109.112Z" fill="#D9D9D9" fill-opacity="0.38" stroke="#F6F6F6"/>
<path d="M645.382 187.035C625.8 217.556 605.676 235.974 596.514 242.283L656.075 109.44C661.275 122.777 665.418 155.805 645.382 187.035Z" fill="#F6F6F6" stroke="#F6F6F6"/>
<path d="M571.339 20.484C579.556 33.9009 591.871 58.8246 590.101 87.905C589.218 102.419 586.484 119.394 583.793 134.234C582.848 139.445 581.908 144.398 581.055 148.887C579.616 156.466 578.427 162.727 577.891 166.684C569.846 158.343 552.883 136.498 548.564 107.192C543.508 72.8861 555.267 50.7773 567.073 28.5812C568.504 25.8907 569.936 23.1989 571.339 20.484Z" fill="#D9D9D9" fill-opacity="0.38" stroke="#F6F6F6"/>
<path d="M597.351 94.6516C593.656 130.726 584.013 156.245 578.685 166.009L571.867 20.5856C582.527 30.1391 601.133 57.7407 597.351 94.6516Z" fill="#F6F6F6" stroke="#F6F6F6"/>
<path d="M672.76 220.126C674.258 235.787 674.391 263.587 660.043 288.943C652.882 301.599 642.978 315.653 634.049 327.809C630.914 332.077 627.896 336.115 625.161 339.776C620.542 345.955 616.728 351.059 614.51 354.38C610.94 343.355 605.28 316.283 614.255 288.053C624.761 255.006 645.028 240.297 665.375 225.531C667.841 223.741 670.309 221.95 672.76 220.126Z" fill="#D9D9D9" fill-opacity="0.38" stroke="#F6F6F6"/>
<path d="M663.598 298.188C644.451 328.984 624.591 347.686 615.519 354.123L673.19 220.449C678.578 233.711 683.189 266.677 663.598 298.188Z" fill="#F6F6F6" stroke="#F6F6F6"/>
<path d="M766.551 343.941C753.847 353.223 730.008 367.525 700.88 368.127C686.342 368.428 669.201 367.083 654.191 365.609C648.921 365.092 643.908 364.557 639.364 364.073C631.693 363.255 625.356 362.58 621.369 362.367C629.028 353.67 649.42 334.986 678.277 328.297C712.058 320.466 735.05 330.388 758.133 340.349C760.931 341.556 763.731 342.764 766.551 343.941Z" fill="#D9D9D9" fill-opacity="0.38" stroke="#F6F6F6"/>
<path d="M694.746 375.902C658.49 375.154 632.272 367.619 622.106 363.103L766.493 344.475C757.838 355.877 731.842 376.667 694.746 375.902Z" fill="#F6F6F6" stroke="#F6F6F6"/>
<path d="M798.065 225.747C790.919 239.764 776.104 263.287 750.384 276.973C737.548 283.804 721.646 290.342 707.586 295.802C702.65 297.719 697.936 299.505 693.662 301.124C686.448 303.857 680.489 306.115 676.835 307.725C679.743 296.508 689.505 270.631 712.236 251.635C738.844 229.398 763.839 227.873 788.933 226.341C791.975 226.156 795.018 225.97 798.065 225.747Z" fill="#D9D9D9" fill-opacity="0.38" stroke="#F6F6F6"/>
<path d="M748.418 286.68C715.728 302.379 688.932 307.491 677.822 308.051L798.252 226.251C795.677 240.331 781.865 270.618 748.418 286.68Z" fill="#F6F6F6" stroke="#F6F6F6"/>
<path d="M774.077 24.9254C775.575 40.5871 775.708 68.3871 761.36 93.7432C754.198 106.398 744.294 120.453 735.366 132.609C732.231 136.877 729.213 140.915 726.477 144.575C721.859 150.755 718.044 155.859 715.826 159.18C712.257 148.155 706.596 121.083 715.571 92.8525C726.078 59.806 746.345 45.0973 766.691 30.3305C769.158 28.5406 771.625 26.7498 774.077 24.9254Z" fill="#D9D9D9" fill-opacity="0.38" stroke="#F6F6F6"/>
<path d="M764.914 102.987C745.767 133.784 725.907 152.485 716.835 158.923L774.506 25.2488C779.894 38.5105 784.505 71.4767 764.914 102.987Z" fill="#F6F6F6" stroke="#F6F6F6"/>
<path d="M867.87 148.742C855.166 158.023 831.327 172.326 802.199 172.928C787.662 173.228 770.521 171.884 755.511 170.41C750.24 169.892 745.227 169.358 740.683 168.874C733.012 168.056 726.676 167.38 722.688 167.168C730.347 158.471 750.739 139.787 779.597 133.097C813.377 125.267 836.37 135.188 859.453 145.149C862.251 146.357 865.05 147.565 867.87 148.742Z" fill="#D9D9D9" fill-opacity="0.38" stroke="#F6F6F6"/>
<path d="M796.062 180.704C759.806 179.956 733.588 172.422 723.422 167.906L867.809 149.278C859.154 160.68 833.158 181.47 796.062 180.704Z" fill="#F6F6F6" stroke="#F6F6F6"/>
<path d="M899.38 30.5474C892.234 44.5641 877.419 68.0876 851.699 81.7735C838.862 88.6041 822.961 95.1423 808.901 100.602C803.965 102.52 799.251 104.306 794.977 105.925C787.763 108.658 781.804 110.915 778.15 112.526C781.058 101.308 790.82 75.431 813.55 56.4352C840.159 34.1987 865.154 32.6731 890.248 31.1415C893.29 30.9559 896.333 30.7701 899.38 30.5474Z" fill="#D9D9D9" fill-opacity="0.38" stroke="#F6F6F6"/>
<path d="M849.735 91.4816C817.046 107.18 790.249 112.292 779.139 112.852L899.569 31.0519C896.994 45.1327 883.182 75.4191 849.735 91.4816Z" fill="#F6F6F6" stroke="#F6F6F6"/>
<path d="M45.2336 241.934C46.7317 257.596 46.8647 285.396 32.5165 310.752C25.3554 323.407 15.4514 337.462 6.52286 349.617C3.38783 353.886 0.369991 357.923 -2.36584 361.584C-6.98407 367.764 -10.7987 372.868 -13.0168 376.189C-16.5864 365.164 -22.2467 338.092 -13.2716 309.861C-2.76536 276.815 17.5015 262.106 37.8483 247.339C40.3147 245.549 42.7822 243.759 45.2336 241.934Z" fill="#D9D9D9" fill-opacity="0.38" stroke="#F6F6F6"/>
<path d="M36.0724 319.995C16.9254 350.792 -2.93506 369.493 -12.0066 375.931L45.6639 242.257C51.0522 255.519 55.6633 288.485 36.0724 319.995Z" fill="#F6F6F6" stroke="#F6F6F6"/>
<path d="M139.026 365.75C126.323 375.032 102.484 389.334 73.3556 389.936C58.818 390.237 41.677 388.893 26.6669 387.418C21.3964 386.901 16.3837 386.366 11.8394 385.882C4.16844 385.064 -2.16773 384.389 -6.1556 384.176C1.50357 375.48 21.8955 356.795 50.7529 350.106C84.5335 342.275 107.526 352.197 130.609 362.158C133.407 363.365 136.206 364.573 139.026 365.75Z" fill="#D9D9D9" fill-opacity="0.38" stroke="#F6F6F6"/>
<path d="M67.218 397.712C30.9624 396.964 4.74374 389.429 -5.42212 384.913L138.965 366.285C130.31 377.687 104.314 398.477 67.218 397.712Z" fill="#F6F6F6" stroke="#F6F6F6"/>
<path d="M170.536 247.556C163.39 261.572 148.574 285.096 122.855 298.782C110.018 305.612 94.1161 312.151 80.0568 317.611C75.1202 319.528 70.406 321.314 66.1324 322.933C58.9183 325.666 52.9596 327.924 49.3052 329.534C52.2139 318.317 61.9757 292.439 84.706 273.444C111.314 251.207 136.309 249.681 161.403 248.15C164.445 247.964 167.488 247.778 170.536 247.556Z" fill="#D9D9D9" fill-opacity="0.38" stroke="#F6F6F6"/>
<path d="M120.889 308.489C88.1999 324.187 61.4034 329.3 50.2938 329.859L170.724 248.059C168.148 262.14 154.336 292.426 120.889 308.489Z" fill="#F6F6F6" stroke="#F6F6F6"/>
</g>
</svg>
